<svg xmlns="http://www.w3.org/2000/svg" enable-background="new 0 0 53 53" viewBox="0 0 53 53"><path fill="#58595b" d="M51,25.8c-0.3-0.5-0.8-0.8-1.4-1c-0.3-0.1-0.6-0.1-0.8-0.1c-0.1,0-5.3,0-4.9,0l-8.8,0.1
		c-4,0.1-7.9,0.2-11.9,0.4c0.2-3.5,0.2-5,0.3-5.8c0-0.3-0.1-0.6-0.2-0.8c-0.2-0.5-0.7-0.9-1.3-1c-0.5,0-1-0.1-1.5-0.1
		c0.1-1.1,0.1-2.1,0.2-3.2c0-1.3-0.3-2.7-1-3.8c-1.3-2.4-4-3.9-6.7-3.9c-2.7,0-5.4,1.5-6.7,3.9c-0.7,1.2-1,2.5-1,3.8
		c0,0.9,0.1,1.9,0.1,2.8l-1.2,0c-0.3,0-0.7,0-1,0.2c-0.7,0.3-1.2,0.9-1.4,1.6c0,0.2-0.1,0.4-0.1,0.5c0,0.1,0,1.8,0,1.7l0,2.7
		l-0.1,11c0,0.2,0,9,0,8.9c0,0.4,0,0.7,0.2,1c0.3,0.7,0.9,1.2,1.7,1.4c0.2,0,0.4,0.1,0.6,0.1c0.1,0,1.1,0,1,0c0.2,0,4.4-0.1,4.1-0.1
		l5.5-0.1l5.5-0.1l1.4,0c0.2,0,0.6,0,0.9-0.1c0.6-0.2,1.1-0.7,1.3-1.3c0.1-0.3,0.1-0.7,0.1-0.8l0-1.4c-0.2-3.5-0.3-7-0.5-10.6
		c4,0.2,7.9,0.3,11.9,0.4l8.8,0.1c0.1,0,5.3,0,4.9,0c0.3,0,0.6-0.1,0.8-0.1c0.5-0.2,1-0.6,1.4-1c0.3-0.5,0.5-1.1,0.5-1.6l0-1.1
		l0-1.1C51.5,26.9,51.3,26.3,51,25.8z M30.2,30.3c0.1,0.1,0.3,0.2,0.4,0.3c-4,0.1-7.9,0.3-11.9,0.5c0.4-0.8,0.5-1.7,0.5-2.6
		c0-0.9-0.3-1.9-0.8-2.7c3.3,0.2,6.5,0.3,9.8,0.4C28.3,27.6,29,29.2,30.2,30.3z M7.6,11.5c1.1-1.8,3.1-2.9,5.2-2.8
		c2.1,0,4.1,1.1,5.2,2.8c0.6,0.9,0.9,1.9,1,3c0.1,1,0.1,2,0.2,3c-0.2,0-0.4,0-0.6,0c-7.4-0.2-9.5-0.2-12.1-0.3l0.1-2.8
		C6.7,13.4,7.1,12.3,7.6,11.5z M22.7,42.4l0,1.4c0,0.3,0,0.4-0.1,0.5c-0.1,0.1-0.1,0.3-0.2,0.3c-0.1,0.1-0.2,0.2-0.4,0.2
		c-0.1,0-0.2,0-0.5,0l-1.4,0l-5.5-0.1L3.8,44.5c-0.2,0-0.3-0.2-0.3-0.3c0,0,0-0.1,0-0.1c0-0.1,0,0,0-0.2c0-0.2,0-3.6,0-3.4l0-5.5
		l-0.1-11c0-0.1-0.1-4.4-0.1-4.1l0-0.3c0-0.1,0-0.1,0-0.1c0-0.1,0.1-0.2,0.1-0.2c0.1-0.1,0.2-0.2,0.5-0.2l1.4,0
		c3.8-0.1,5.5-0.1,13.2-0.3c0.4,0,0.8,0.1,1.2,0.1c0.2,0,0.3,0,0.4-0.1c0.6,0,1.1,0,1.6-0.1c0.3,0,0.7,0.2,0.9,0.5
		c0.1,0.2,0.1,0.3,0.2,0.5c0.1,1.4,0.1,2.6,0.3,5.8c-1.7,0.1-3.3,0.1-5,0.2c-0.3-0.4-0.6-0.8-1-1.2c-1.2-1-2.8-1.5-4.3-1.3
		c1.5,0.2,2.7,0.9,3.6,2c0.9,1,1.3,2.3,1.2,3.6c-0.1,2.5-2.4,4.6-4.8,4.5c-2.4,0.1-4.7-2-4.8-4.6c-0.1-1.2,0.3-2.6,1.2-3.6
		c0.8-1,2.1-1.7,3.6-2c-1.5-0.2-3.1,0.2-4.3,1.3c-1.2,1-2,2.6-2.1,4.3c-0.1,1.7,0.6,3.4,1.7,4.6c1.2,1.2,2.9,1.9,4.6,2
		c1.7,0,3.4-0.7,4.6-2c0.4-0.4,0.8-1,1.1-1.5c1.6,0.1,3.1,0.1,4.7,0.2C22.9,35.3,22.8,38.8,22.7,42.4z M31.7,30.6
		c-0.1-1.5-0.9-3-2-4c-0.1-0.1-0.3-0.3-0.4-0.4c1.9,0.1,3.9,0.1,5.8,0.2l0.2,0c0,0.4,0.1,0.7,0.2,1c0.3,1,0.9,2.1,1.7,2.9
		c0.1,0.1,0.1,0.1,0.2,0.2l-2.4,0C34,30.6,32.8,30.6,31.7,30.6z M38.8,30.5c-0.2-1.4-0.9-2.8-1.9-3.8c-0.1-0.1-0.1-0.1-0.2-0.2
		l5.8,0.1c0.2,1.3,0.9,2.7,1.9,3.8c0,0,0.1,0,0.1,0.1l-0.6,0L38.8,30.5z M49.5,29.6c0,0.2,0,0.3-0.1,0.5c-0.1,0.1-0.2,0.2-0.4,0.3
		c-0.1,0-0.1,0-0.2,0c-0.1,0-3,0-2.8,0c-0.2-1.3-0.8-2.7-1.9-3.8c0,0-0.1-0.1-0.1-0.1c0.1,0,5.2,0,4.8,0c0.1,0,0.2,0,0.2,0
		c0.1,0,0.3,0.2,0.4,0.3c0.1,0.1,0.1,0.2,0.1,0.5l0,1.1L49.5,29.6z"/></svg>