<svg xmlns="http://www.w3.org/2000/svg" enable-background="new 0 0 52 52" viewBox="0 0 52 52"><path fill="#58595b" d="M47.1,24c0.2,0,0.4,0,0.6,0.1l0.3,0c0.1,0,0.3,0,0.4,0c1.1,0,2.1-0.8,2.5-1.8c0.4-1,0.1-2.3-0.7-3.1
		c-0.4-0.4-0.9-0.7-1.5-0.8c-0.3-0.1-0.6-0.1-0.8-0.1l-0.6,0l-1.1,0.1c-0.2,0-0.3,0-0.6,0c-0.3,0-0.5,0.1-0.8,0.2
		c-0.5,0.2-1,0.6-1.2,1.1l-0.8-3.8l-0.8-3.6l-0.4-1.8c-0.1-0.5-0.3-1.4-0.7-2c-0.8-1.3-2.2-2.2-3.7-2.4c-0.2,0-0.4,0-0.6,0
		c-0.1,0-3.3,0-3.2,0l-7.4,0c-0.1,0-10.3,0-10.2,0c-0.2,0-0.7,0-1,0c-1.5,0.2-2.9,1.1-3.7,2.4c-0.4,0.6-0.6,1.5-0.7,2l-0.4,1.8
		L9,15.9l-0.7,3.4c-0.3-0.3-0.6-0.6-1-0.8c-0.2-0.1-0.5-0.2-0.8-0.2c-0.3,0-0.4,0-0.6,0l-1.1-0.1l-0.6,0c-0.2,0-0.5,0-0.8,0.1
		c-0.6,0.1-1.1,0.4-1.5,0.8c-0.8,0.8-1.1,2.1-0.7,3.1c0.4,1,1.4,1.8,2.5,1.8c0.1,0,0.3,0,0.4,0l0.3,0c0.2,0,0.4,0,0.6-0.1l1-0.1
		c-0.2,0.1-0.3,0.2-0.5,0.4c-0.9,0.8-1.6,2-1.8,3.3c-0.1,0.3-0.1,0.6-0.1,0.9c0,0.2,0,2.6,0,2.5l-0.1,3.3l0,0.8c0,0.3,0,0.8,0.2,1.1
		c0.3,0.7,0.8,1.3,1.5,1.7c0.4,0.2,0.7,0.3,1.1,0.3c0.4,0,0.6,0,0.9,0l0.6,0c-0.1,1.5-0.1,2.9-0.1,4.4c0,0.5,0.1,1.2,0.4,1.8
		c0.3,0.5,0.8,1,1.3,1.3c0.5,0.3,1.2,0.4,1.8,0.4c1.2,0,1,0,2.6-0.1c0.5,0,1.2-0.2,1.7-0.5c1-0.6,1.6-1.8,1.5-2.9
		c-0.1-1.5-0.3-3-0.5-4.3l9,0l8.3,0c-0.1,1.4-0.1,2.9-0.1,4.3c0,0.5,0.1,1.2,0.4,1.8c0.3,0.5,0.8,1,1.3,1.3c0.5,0.3,1.2,0.4,1.8,0.4
		c1.2,0,1,0,2.6-0.1c0.5,0,1.2-0.2,1.7-0.5c1-0.6,1.6-1.8,1.5-2.9c-0.1-1.6-0.3-3-0.5-4.4l1.4,0c0.3,0,0.5,0,0.9,0
		c1.6-0.1,2.9-1.4,2.8-3.1l0-0.8c0-0.2-0.1-5.3-0.1-5l0-0.8c0-0.3,0-0.6-0.1-0.9c-0.2-1.3-0.8-2.4-1.8-3.3c-0.3-0.2-0.5-0.4-0.8-0.6
		c0.4,0.1,0.8,0.2,1.2,0.2L47.1,24z M10.6,16.3l0.9-3.6l0.5-1.8c0.2-0.7,0.3-1.1,0.5-1.5C13,8.6,13.9,8.1,14.8,8c0.1,0,0.2,0,0.4,0
		c0.1,0,1.5,0,1.4,0c0.1,0,8.7,0,8.2,0c0,0.1-0.1,0.1-0.1,0.2c-0.3,0.8-0.3,1.6,0,2.4c0,0.1,0.1,0.1,0.1,0.2c-0.4,0-0.8,0.1-1.1,0.2
		c-0.6,0.2-1.2,0.4-1.8,0.8c0.6,0.4,1.2,0.6,1.8,0.8c1.2,0.3,2.5,0.3,3.7,0c0.6-0.2,1.2-0.4,1.8-0.8c-0.6-0.4-1.2-0.6-1.8-0.8
		c-0.4-0.1-0.8-0.1-1.1-0.2c0-0.1,0.1-0.1,0.1-0.2c0.3-0.8,0.3-1.6,0-2.4c0-0.1-0.1-0.1-0.1-0.2c0.1,0,9.4,0,8.9,0L36,8
		c0.3,0,0.6,0,0.8,0c0.9,0.1,1.8,0.6,2.3,1.4c0.3,0.4,0.4,0.8,0.5,1.5l0.5,1.8l0.9,3.6l1.7,6.4c-5.6,0.1-5.9,0.2-8.9,0.3
		c-2.7,0.1-5.3,0.2-8,0.3c-2.9-0.2-5.8-0.3-8.7-0.4c-2.8-0.1-5.5-0.2-8.3-0.3L10.6,16.3z M3.9,22.5c-1-0.3-1.2-1.5-0.6-2
		c0.1-0.1,0.3-0.2,0.5-0.3c0.1,0,0.1,0,0.3,0l0.6,0l1.1-0.1c0.4,0,0.6-0.1,0.9,0c0.5,0.1,1,0.5,1.1,1c0,0,0,0,0,0L7.5,23
		c0,0-0.1,0-0.1,0c-0.4-0.1-0.9-0.2-1.3-0.2L3.9,22.5z M15.7,42.5c-0.1,0.7-0.4,1.2-1,1.5c-0.3,0.1-0.5,0.2-0.9,0.1
		c-1.5-0.1-1.5-0.1-2.6-0.1c-0.3,0-0.5-0.1-0.8-0.2c-0.5-0.3-0.7-0.7-0.7-1.3c0-1.5-0.1-2.9-0.1-4.4l2.6,0l4,0
		C16,39.8,15.8,41.2,15.7,42.5z M41.6,42.5c-0.1,0.7-0.4,1.2-1,1.5c-0.3,0.1-0.5,0.2-0.9,0.1c-1.5-0.1-1.5-0.1-2.6-0.1
		c-0.3,0-0.5-0.1-0.8-0.2c-0.5-0.3-0.7-0.7-0.7-1.3c0-1.4-0.1-2.9-0.1-4.3l3.3,0c0.1,0,3.6,0,3.4,0C42,39.7,41.7,41.2,41.6,42.5z
		 M45.8,27.6c0,0.2,0,0.5,0,0.7c0,0.3,0,2.6,0,2.5l-0.1,3.3l0,0.8c0,0.2,0,0.3-0.1,0.5c-0.2,0.5-0.6,0.8-1.1,0.8l-0.8,0
		c-0.7,0-5.3-0.1-5-0.1l-13.3-0.1l-13.3,0.1c-0.1,0-5.3,0.1-5,0.1l-0.8,0c-0.5,0-1-0.4-1.1-0.8c-0.1-0.2-0.1-0.3-0.1-0.5l0-0.8
		c0-0.1-0.1-5.3-0.1-5l0-0.8c0-0.3,0-0.5,0-0.7c0.1-0.9,0.6-1.8,1.2-2.5c0.6-0.6,1.4-1,2.3-1.2c2.9-0.1,5.7-0.1,8.6-0.3
		c2.9-0.1,5.8-0.2,8.7-0.4c2.7,0.1,5.3,0.2,8,0.3c2.7,0.1,3.2,0.1,8.1,0.3c1,0.1,1.9,0.5,2.5,1.2C45.3,25.8,45.7,26.7,45.8,27.6z
		 M44.3,23.2c0-0.1-0.3-1.4-0.3-1.3c0.1-0.3,0.1-0.5,0.2-0.8c0.2-0.6,0.7-0.9,1.1-1c0.2-0.1,0.4,0,0.9,0l1.1,0.1l0.6,0
		c0.2,0,0.2,0,0.3,0c0.2,0.1,0.4,0.2,0.5,0.3c0.6,0.5,0.4,1.7-0.6,2l-2.2,0.3C45.4,22.9,44.8,23,44.3,23.2z"/><path fill="#58595b" d="M13.4 27c-.8-.1-1.8.1-2.6.7-.7.6-1.2 1.6-1.2 2.6 0 1 .5 2 1.2 2.5.7.6 1.7.8 2.6.7 1.7-.3 2.8-1.8 2.7-3.3 0 .7-.3 1.4-.9 1.8-.6.4-1.3.6-1.8.4-1.2-.3-1.8-1.4-1.8-2.3 0-.9.5-1.9 1.7-2.2.6-.1 1.3 0 1.8.4.6.4.9 1.1.9 1.8C16.2 28.8 15.2 27.3 13.4 27zM37.5 27c-.8-.1-1.8.1-2.6.7-.7.6-1.2 1.6-1.2 2.6 0 1 .5 2 1.2 2.5.7.6 1.7.8 2.6.7 1.7-.3 2.8-1.8 2.7-3.3 0 .7-.3 1.4-.9 1.8-.6.4-1.3.6-1.8.4-1.2-.3-1.8-1.4-1.8-2.3 0-.9.5-1.9 1.7-2.2.6-.1 1.3 0 1.8.4.6.4.9 1.1.9 1.8C40.3 28.8 39.3 27.3 37.5 27z"/></svg>