<svg xmlns="http://www.w3.org/2000/svg" viewBox="0 0 66 66"><path d="M49.79 55.312c.912-3.34-.044-6.438-12.907-50.363C35.174-.937 31.121.88 29.7 2.635c-1.152 1.408-1.542 3.265-1.854 4.754l-.013.06a.494.494 0 0 0-.253.443.484.484 0 0 0 .1.27c-8.652 40.294-7.551 35.264-8.588 39.925a.485.485 0 0 0-.048.208l.001.006c-.305 1.371-1.295 5.807-1.488 7.222-2.457.556-5.74 1.622-7.516 4.361-1.564 2.38-.879 5.245 2.1 4.978.804-.069 35.343.057 36.147.059.182.182.366.234.47.001 4.639.013 5.997.199 7.141-.886 2.003-1.869.794-6.76-6.109-8.724zm-31.195-.011c.017-.091.038-.184.056-.275a.248.248 0 0 0 .164-.068l1.087-1.087.301.301a.25.25 0 1 0 .354-.354l-.301-.301.898-.898c.006-.006.004-.016.01-.023a.24.24 0 0 0 .341-.005.25.25 0 0 0 0-.354l-1.153-1.153.934-.934 1.214 1.214a.25.25 0 1 0 .354-.354l-1.214-1.214.289-.289a.25.25 0 0 0 0-.354c-.015-.015-.036-.012-.053-.022l.338-.338h1.626l.359.359-1.35 1.35a.25.25 0 1 0 .353.354l1.35-1.35.925.925a.25.25 0 1 0 .354-.354l-.925-.925.359-.359h1.674l.264.264-1.35 1.349a.25.25 0 1 0 .353.354l1.35-1.349 1.126 1.127a.25.25 0 1 0 .354-.353l-1.126-1.127.264-.264h1.671a.238.238 0 0 0 .063.202l.276.277-.896.896a.25.25 0 1 0 .354.354l.896-.896.699.699a.249.249 0 0 0 .177.073c.003 0 .005-.003.007-.003.007.009.004.023.013.031a.25.25 0 0 0 .354 0l1.206-1.206 1.255 1.255c.021.021.051.02.077.032a.25.25 0 0 0 .065.158.25.25 0 0 0 .354 0l1.54-1.54 1.282 1.282a.25.25 0 0 0 .354 0c.018-.018.016-.044.027-.065.122.095.243.072.327-.011l1.063-1.063.926.926a.25.25 0 1 0 .354-.354l-.926-.926.121-.121h1.388l.454.454-.539.539a.25.25 0 1 0 .354.354l.539-.539.451.451a.25.25 0 1 0 .354-.354l-.451-.451.454-.454h.565c.011.019.008.043.025.06l.658.657-.181.181a.25.25 0 1 0 .354.354l.181-.181.135.135a.25.25 0 1 0 .353-.354l-.135-.135.624-.624.969.969a.25.25 0 1 0 .354-.354l-.708-.708h2.28c.377 1.562 1.119 4.188.547 6.266-6.787-1.54-19.481-1.874-30.243.241zm.461-2.276.492.492-.742.742c.081-.411.165-.822.25-1.234zm2.014-3.796-.435-.435h.87l-.435.435zm-1.115-.407.761.761c-.117.117-.134.285.039.39l-.759.759-.038-.038a.25.25 0 1 0-.354.354l.157.157c.052.116-.008.06.115.114l.94.94c-.005.004-.013.002-.018.007l-.898.898-.726-.726c.256-1.216.515-2.42.781-3.616zm4.591-.028h.012l-.007.006-.005-.006zm14.316 0 .121.12-1.063 1.063c-.015.015-.012.036-.022.054l-1.237-1.237h2.201zm-2.954 0-1.318 1.317-1.317-1.317h2.635zm-4.346 1.15-.672-.672.183-.183c.082-.082.079-.2.024-.296h1.615l-1.15 1.151zm-1.025-1.025-.125-.125h.25l-.125.125zm11.368-.125h.202l-.101.101-.101-.101zm2.146 0h.727l-.363.363-.364-.363zM23.91 30.69c-.011-.011-.027-.008-.038-.016l.28-1.305.557.557-.781.781-.018-.017zm-.198.728c.026.009.049.032.076.032.044 0 .083-.027.122-.051l.88.88-.754.754-.553-.553c.078-.355.154-.708.229-1.062zm-.028 1.968-.46.46a.245.245 0 0 0-.067.162l.203-.946.324.324zm-.531.641c0 .024.02.043.028.067h-.042l.014-.067zm.885-.288.246.246a.25.25 0 1 0 .354-.353l-.246-.246.754-.754.149.149a.25.25 0 1 0 .354-.354l-.149-.149.321-.321a.25.25 0 1 0-.354-.354l-.321.321-.864-.864.781-.781.627.628a.25.25 0 1 0 .354-.354l-.627-.627.491-.491a.249.249 0 0 0 0-.353.249.249 0 0 0-.353 0l-.491.491-.785-.785.006-.028c.009 0 .016.005.024.005h2.3c.011.042.016.087.05.12l.737.737-.626.626a.25.25 0 1 0 .354.354l.626-.626.898.899a.25.25 0 1 0 .354-.354l-.902-.899.857-.857h.85c-.037.012-.077.015-.106.044a.25.25 0 0 0 0 .354l.875.875-.709.709a.25.25 0 1 0 .353.354l.709-.709.469.47a.25.25 0 1 0 .354-.354l-.469-.47.631-.631a.25.25 0 1 0-.354-.354l-.631.631-.875-.875c-.029-.029-.069-.032-.106-.044h2.658c-.049.094-.051.207.028.286l1.013 1.014-.626.626a.25.25 0 1 0 .354.354l.626-.626.017.017a.25.25 0 1 0 .354-.353l-.017-.017.867-.867a.25.25 0 1 0-.354-.354l-.867.867-.946-.946h2.818c.011.021.009.047.027.065l.903.902-.515.516a.25.25 0 1 0 .354.354l1.303-1.304c.038-.038.049-.089.057-.138l.6.601-.044.044a.25.25 0 1 0 .354.354l1.292-1.292c.01-.01.007-.025.015-.036l1.08 1.079a.25.25 0 1 0 .353-.354l-.792-.791h1.951c.516 1.766 1.028 3.541 1.541 5.329h-20.67l.356-.356zm3.205-4.974h1.007l-.503.504-.504-.504zm11.713.642-.642-.642h1.284l-.642.642zm-1.343-.642c.003.003.001.007.004.01l.112.113c-.049.008-.1.019-.138.057l-.434.434-.615-.614h1.071zm-.768-20.386-.352.352-.505-.505.071-.071c.009-.01.007-.024.014-.035l.689-.022.083.281zm-1.642-.231.078.078-.951.952-.929-.929c.01-.013.011-.029.018-.043l1.784-.058zm-7.09 2.764.996.996-1.086 1.086-.294-.294.384-1.788zm-.443 2.435-.102.102.036-.167.066.065zm.353.354.263.263h-.526l.263-.263zm.62-.088-.266-.266 1.098-1.099c.124.082.227.065.31-.018.086-.086.083-.213.018-.31l.627-.627a.25.25 0 1 0-.354-.354l-.614.614-1.225-1.225.423-1.972.292-.009.529.529-1.054 1.054a.25.25 0 1 0 .354.354l1.054-1.054.596.596a.249.249 0 0 0 .353 0 .249.249 0 0 0 0-.353l-.596-.596.42-.42.947.947-.029.029a.25.25 0 1 0 .354.353l.029-.029.548.548a.249.249 0 0 0 .354 0 .249.249 0 0 0 0-.353l-.548-.549.793-.793.96.961c-.013.077-.002.156.057.215.082.082.136.071.215.057l.249.249a.25.25 0 1 0 .354-.354l-.208-.209.952-.952.505.504-.128.128a.25.25 0 1 0 .354.354l.128-.128.211.211a.25.25 0 1 0 .353-.354l-.211-.211.158-.158 1.476 5.038h-9.836a.246.246 0 0 0-.002-.348zm.995-5.286.408-.013-.211.21-.197-.197zm1.5-.048 1.596-.051-.824.823-.772-.772zm-.662-5.013c.851-1.051 2.514-1.751 3.718-1.049 1.206.711 1.548 2.397 2.278 4.89l-7.595.243c.283-1.34.657-2.933 1.599-4.084zm-3.233 11.698h11.53c5.534 18.897 2.658 9.075 3.747 12.801H24.496c.384-1.798 2.487-11.589 2.747-12.801zm-4.311 20.094a.495.495 0 0 0 .177.036h21.528c1.199 4.206 2.354 8.451 3.399 12.7H25.687a.241.241 0 0 0-.038 0h-5.468c.7-3.133.539-2.416 2.751-12.736zM12.121 63.86l.025-.025c.017.006.031.018.048.02l-.073.005zm.476-.035c-.114.005-.22.015-.329.024.048-.009.097-.019.134-.056.071-.07.072-.167.041-.255l.812-.812.653.653-.427.426c-.294.011-.591.007-.884.02zm1.665-.091.056.056-.114.002.058-.058zm2.181.04.633-.633.648.648c-.426-.007-.851-.012-1.281-.015zm4.541-.032c0 .032.024.058.037.088-.658-.008-1.315-.014-1.975-.026l1-1 .938.938zm.686.097c.002-.048-.021-.09-.047-.133l1.289-1.289 1.433 1.434-2.227-.006-.448-.006zm3.175-.094c.026-.012.056-.011.077-.032l1.476-1.476 1.377 1.377-.159.159c-.024.024-.024.058-.036.088l-2.776-.008c.018-.036.042-.069.041-.108zm6.906-.03a.25.25 0 1 0 .354-.354l-.11-.11 1.532-1.531 1.144 1.144-1.013 1.013-2.282-.007.266-.266.109.111zm4.069-.407-.443-.443 1.558-1.557 1.583 1.583-.624.624a.25.25 0 0 0 0 .354c.015.015.037.012.055.023l-3.587-.01.662-.662.443.443a.25.25 0 1 0 .353-.355zm11.788-3.016 1.093 1.093-1.62 1.62-1.248-1.248 1.743-1.743c-.043.092-.045.201.032.278zm3.381-.488.912.912-1.581 1.581-.912-.912 1.581-1.581zm.313 4.124-1.901-.006.919-.919.607.607a.25.25 0 1 0 .354-.353l-.607-.607 1.581-1.581.938.938c-.101.1-1.817 1.8-1.891 1.921zm-1.336-1.278-1.226 1.226c-.012.012-.009.031-.018.045l-.727-.002-.561-.561 1.62-1.62.912.912zm-3.238.708-.518.518c-.01.01-.007.026-.015.037l-2.384-.007-.063-.063 1.733-1.733 1.247 1.248zm-3.335.132-1.015-1.015 1.733-1.733 1.015 1.015-1.733 1.733zm-.353.353-.061.061-2.025-.006 1.071-1.07 1.015 1.015zm-2.791.053-.222-.001c.027-.086.024-.179-.044-.247l-.758-.758 1.431-1.431 1.015 1.015-1.422 1.422zm-.727-.002-1.331-.004c.018-.011.041-.008.057-.023l.624-.624.65.651zm-8.6-.277c-.07.07-.072.165-.042.253l-2.646-.008 1.832-1.832 1.222 1.222-.366.365zm15.956.298.204-.204.205.205-.409-.001zm8.338-.61-.003.004c-.771.732-2.161.625-3.237.621l1.57-1.57.248.248a.25.25 0 1 0 .354-.354l-.248-.247 1.059-1.059c.232-.232-.119-.588-.354-.354l-1.06 1.059-.938-.938.485-.485a.25.25 0 1 0-.354-.354l-.485.485-.922-.921c.072-.098.075-.232-.014-.32a.25.25 0 0 0-.354 0l-1.911 1.911-1.093-1.093c-.077-.077-.186-.075-.278-.031l.675-.675a.25.25 0 1 0-.354-.354l-2.524 2.525-1.015-1.015.96-.96a.25.25 0 1 0-.354-.354l-.96.96-.248-.248a.25.25 0 1 0-.354.354l.248.248-1.733 1.733-1.015-1.015.484-.484a.25.25 0 1 0-.354-.354l-.484.484-.51-.511a.25.25 0 1 0-.354.354l.51.51-1.431 1.431-1.583-1.583 1.058-1.058a.25.25 0 1 0-.354-.354L36.935 60.6l-.133-.133a.25.25 0 1 0-.353.354l.133.133-1.558 1.558-1.144-1.144.958-.958a.25.25 0 1 0-.354-.354l-.958.958-.443-.443a.25.25 0 1 0-.354.354l.443.443-1.531 1.531-1.222-1.222 1.021-1.021a.25.25 0 1 0-.354-.354l-1.021 1.021-.598-.598a.25.25 0 1 0-.354.354l.598.598-1.583 1.583-1.377-1.376 1.089-1.089a.25.25 0 1 0-.354-.354l-1.089 1.089-.185-.185a.25.25 0 1 0-.354.354l.185.185-1.476 1.476c-.002.002-.001.004-.002.006l-1.301-1.302 1.722-1.722a.25.25 0 1 0-.354-.354L22.91 61.71l-.056-.056a.25.25 0 1 0-.353.354l.056.056-1.273 1.273-.884-.886 1.278-1.277a.25.25 0 1 0-.354-.354l-1.278 1.277-.185-.185a.25.25 0 1 0-.353.354l.185.185-1.114 1.114c-.064.064-.07.151-.05.233l-.375-.004c.06-.097.063-.22-.021-.304l-.703-.703 1.315-1.315a.25.25 0 1 0-.354-.354l-1.315 1.315-.572-.572a.25.25 0 1 0-.354.354l.572.572-.882.882c-.027.027-.028.064-.04.097-.946-.002-.204.007-.994.014.029-.087.027-.182-.043-.251l-.149-.149 1.824-1.824a.25.25 0 1 0-.354-.354l-1.824 1.824-.653-.653.648-.648a.249.249 0 0 0 0-.353.249.249 0 0 0-.353 0l-.762.762c-.03.012-.064.012-.089.037s-.025.059-.037.089l-.897.897-.521-.521a.25.25 0 1 0-.353.354l.52.521-.374.374c-1.037-.066-1.736-1.589-.51-3.455 1.658-2.558 4.921-3.513 7.228-4.008 8.187-1.7 31.452-3.582 36.661 2.976l-.914.914a.25.25 0 1 0 .354.354l.863-.863c.734 1.109 1.032 2.676.145 3.502z"/></svg>