<svg xmlns="http://www.w3.org/2000/svg" viewBox="0 0 66 66"><path d="M33.1 25.946c-.932.105-3.248.467-4.618 1.546-3.123 2.462-3.317 8.374 1.409 10.806 1.625.837 3.391 1.03 4.955.685 7.506-1.669 6.517-13.96-1.746-13.037zm1.792 1.047.275.275-.782.782-.554-.554c.268-.268-.086-.621-.353-.354l-.204-.204a6.271 6.271 0 0 1 1.618.055zm-5.119 2.043.84-.84a.248.248 0 0 0 .003-.346l1.078 1.078-1.014 1.014-.907-.906zm1.116-1.619a11.91 11.91 0 0 1 1.757-.4l.479.479-1.079 1.079-1.157-1.158zm-.524.183.24.24a.25.25 0 0 0-.346.003l-.84.84-.364-.364c.385-.316.842-.538 1.31-.719zm-1.675 1.061.375.375-1.17 1.169-.134-.134c.246-.534.562-1.02.929-1.41zm-1.264 5.236c-.018-.065-.04-.129-.056-.195.22.114.322-.064.513-.255l.52.52-.453.453-.524-.523zm-.127-.569a5.443 5.443 0 0 1-.061-.525l.291.291c-.105.105-.128.126-.23.234zm-.065-1.236c.025-.379.069-.705.207-1.178.107.214.283.171.455-.001.094.094.81.818.915.899l-.929.929-.648-.649zm7.395 5.914c-2.396.534-5.359-.508-6.689-2.868l.01-.01c.221.221.438.525.658.304s-.083-.437-.304-.658l.482-.482c.24.083.36-.106.295-.295l.799-.799c.232-.232-.119-.588-.354-.354l-.77.77-.52-.52 1.93-1.93c.232-.232-.119-.588-.354-.354l-.664.664c-.081-.105-.805-.822-.899-.915l1.17-1.17 1.364 1.364c.208.208.678-.029.25-.457l1.014-1.014c.119.119.596.654.757.654a.25.25 0 0 0 .177-.427l-.58-.58 1.078-1.078.554.554c-.207.207-.451.39-.244.597.207.207.391-.037.597-.244.303.303.645-.062.354-.354l.782-.782c.114.114.507.564.668.564a.25.25 0 0 0 .177-.427l-.503-.503.006-.015c4.094 1.501 4.426 9.506-1.241 10.765z"/><path d="M63.992 23.944a526.4 526.4 0 0 0-14.86-.652c-1.722-3.743-4.252-6.038-7.785-7.259C40.888 1.653 41.136.99 40.354.967c-16.457.549-16.306.314-16.345 1.031a606.36 606.36 0 0 0-.695 15.844c-2.289 1.123-4.25 2.764-5.908 5.7-5.61.289-10.746.694-15.687 1.237a.458.458 0 0 0-.165.004c-1.054.212-.467 13.777.202 17.659.042.245.229.403.51.415 12.708-.426 12.688-.422 16.021-.537 1.365 1.926 3.204 3.506 5.218 4.719.305 6.463 1.129 16.397 1.331 17.397.237 1.159 14.333.37 17.657-.202.675-.118.456-.147-.105-16.434 2.98-1.618 5.278-4.024 6.6-6.488l15.553-.507a.504.504 0 0 0 .483-.518c-.603-16.595-.335-16.303-1.032-16.343zM48.658 40.322a.502.502 0 0 0-.436.286c-1.01 2.138-3.389 4.797-6.576 6.454a.5.5 0 0 0-.269.461c.181 5.242.348 10.485.517 15.795-5.176.803-14.139.688-16.099.569a287.241 287.241 0 0 1-1.304-17.165.498.498 0 0 0-.248-.408c-2.045-1.194-3.941-2.8-5.288-4.784a.542.542 0 0 0-.431-.219c-3.551.122-3.701.124-15.853.531-.801-5.174-.688-14.139-.569-16.1 4.918-.534 10.037-.933 15.633-1.217a.498.498 0 0 0 .414-.261c1.6-2.949 3.511-4.542 5.869-5.652a.501.501 0 0 0 .287-.438 599.83 599.83 0 0 1 .677-15.666c4.853-.176 10.05-.363 14.905-.526.166 5.188.317 9.551.472 14.43a.5.5 0 0 0 .347.461c3.486 1.113 5.973 3.316 7.64 7.11.078.177.25.293.444.299 4.644.131 9.454.339 14.689.634.163 4.853.35 10.063.525 14.905l-15.346.501z"/><path d="m34.235 46.507-.115-2.97c-.023-.617-1.026-.648-.999.039l.115 2.97c.025.653 1.025.626.999-.039zM33.948 53.882a.5.5 0 0 0 .483-.517c-.088-2.672.161-3.512-.618-3.568a.5.5 0 0 0-.483.517c.074 2.253-.227 3.568.618 3.568zM33.688 56.314l-.203 2.744c-.049.66.948.734.997.074l.203-2.744c.049-.645-.947-.756-.997-.074zM32.687 18.541c.094 2.427-.133 3.451.614 3.451a.5.5 0 0 0 .5-.52l-.115-2.971c-.024-.613-1.026-.65-.999.04zM32.491 11.684c.085 2.549-.149 3.567.602 3.567a.5.5 0 0 0 .5-.517l-.103-3.084c-.022-.682-1.021-.612-.999.034zM32.735 9.197c.721 0 .536-.982.701-3.206.049-.653-.949-.742-.997-.074l-.203 2.743a.5.5 0 0 0 .499.537zM47.444 31.749l-2.97.115c-.64.025-.645 1 .038 1l2.971-.115a.501.501 0 0 0 .48-.52c-.011-.276-.26-.458-.519-.48zM54.302 31.554l-3.085.103c-.652.023-.631 1 .016 1l3.102-.103a.5.5 0 0 0 .483-.517.504.504 0 0 0-.516-.483zM60.068 31.502l-2.744-.203c-.656-.055-.735.949-.073.998.037.003 2.744.204 2.781.204.635 0 .672-.952.036-.999zM22.41 32.184l-2.97.115c-.644.025-.646 1 .038 1l2.97-.115a.5.5 0 0 0 .48-.52c-.01-.276-.25-.464-.518-.48zM15.672 32.393l-3.085.102c-.652.023-.631 1 .016 1l3.102-.102c.685-.022.597-1.049-.033-1zM9.671 32.751l-2.744-.202c-.649-.058-.74.948-.073.998.037.003 2.744.203 2.781.203.636 0 .673-.952.036-.999z"/></svg>