<svg width="793" height="752" viewBox="0 0 793 752" fill="none" xmlns="http://www.w3.org/2000/svg">
<path d="M320.795 270.929C275.454 280.571 218.023 306.286 211.977 315.929C260.341 389.857 323.818 553.786 323.818 614.857C305.682 682.357 254.295 663.072 227.091 656.643C187.795 688.786 148.5 714.5 124.318 730.572C266.386 785.214 384.273 730.572 456.818 602C574.705 441.286 695.614 158.429 713.75 116.643C639.981 140.812 532.386 200.214 532.386 200.214L405.432 502.357C405.432 502.357 363.114 319.143 320.795 270.929Z" fill="black"/>
<path d="M215 351.286C202.909 351.286 181.75 425.214 0.386368 656.643C0.386368 666.286 239.182 637.357 305.682 637.357C320.795 621.286 314.75 585.929 308.705 563.429C290.568 557 218.023 563.429 175.705 563.429C208.955 512 257.318 444.5 257.318 428.429C257.318 405.929 230.114 341.643 215 351.286Z" fill="#FF0000"/>
<path d="M792.341 675.929C792.341 563.429 414.5 29.8572 378.227 0.928585C360.091 -5.50006 354.045 33.0715 344.977 62C314.75 129.5 260.341 258.071 257.318 274.143C278.477 277.357 308.705 267.714 323.818 258.071C323.818 261.286 329.864 267.714 329.864 267.714C329.864 267.714 338.932 280.571 348 267.714C366.136 238.786 399.386 155.214 399.386 155.214C399.386 155.214 629.114 489.5 662.364 576.286C614 569.857 517.273 557 496.114 563.429C481 569.857 453.795 618.071 453.795 637.357C586.795 637.357 689.568 656.643 792.34 675.928L792.341 675.929Z" fill="#FF0000"/>
</svg>
