<svg xmlns="http://www.w3.org/2000/svg" viewBox="0 0 66 66"><path d="m64.345 22.544-.025-.373c-.131-1.837-.369-3.728-1.68-4.885-1.241-1.104-2.984-1.141-4.663-1.087-1.842.056-3.686.118-5.542.181 0-1.196-.001-2.392-.007-3.588 1.863-1.35 2.55-3.744 1.781-5.785-.541-1.441-2.067-3.208-3.83-3.643-1.713-.413-3.978.678-5.004 1.461-3.647 2.785-2.433 7.815 1.561 8.931.012.935.019 1.866.02 2.795l-5.78.184a.422.422 0 0 0-.293-.144.384.384 0 0 0-.355.164l-14.689.467a.42.42 0 0 0-.118-.079.421.421 0 0 0-.461.097l-5.831.186c0-1.42-.001-2.84-.007-4.26 2.298-1.253 3.21-3.919 2.364-6.159-.542-1.44-2.071-3.207-3.839-3.643-2.154-.515-6.776 1.356-7.17 5.16-.213 2.077 1.06 4.138 3.099 5.014l.047.019c.02 1.346.035 2.696.043 4.043l-4.446.141a.415.415 0 0 0-.328.01l-.853.029c-1.338.04-3.002.089-4.373.952-2.349 1.487-2.789 4.509-2.91 7.271-.091 2.194-.117 4.519.273 6.65a.418.418 0 0 0 .051.255c1.198 5.981 5.366 7.765 11.465 7.616l1.09-.024c-.016 2.019-.108 11.94-.215 16.356-2.635.057-3.734.033-4.812.507-2.544 1.122-2.37 4.21.334 5.035 1.092.332 2.26.174 3.198.048 2.252-.304 37.984.348 41.189.274 1.394-.028 2.737-.111 3.846-.828l.002-.001a3.256 3.256 0 0 0 1.385-2.081c.576-3.211-3.645-2.893-6.831-2.963.117-5.719.202-11.026.257-16.186l2.62.032c.316.003.634.007.953.007 1.277 0 2.576-.054 3.847-.375 1.818-.462 3.297-1.44 4.162-2.754 1.259-1.91 1.211-4.288 1.042-6.763-.194-2.764-.381-5.522-.567-8.264zm-1.124-2.378-.59-.59.33-.33c.111.287.193.598.26.92zm-1.917-2.736-.248.247-.483-.483c.256.058.501.134.731.236zm-1.217-.324c-.033.077-.034.165.029.228l.642.642-.534.534a.212.212 0 0 0 .299.299l.534-.534.47.47a.212.212 0 0 0 .299-.299l-.47-.47.297-.297c.016-.016.015-.04.025-.059.142.087.277.186.404.299.303.268.531.595.713.96-.038.008-.077.015-.107.044l-1.025 1.025a.212.212 0 0 0 .299.299l.372-.372.804.804a.21.21 0 0 0 .149.062c.013 0 .023-.012.035-.015.072.483.119.988.156 1.504l.007.105-.625-.625a.212.212 0 0 0-.144-.06l.526-.526a.212.212 0 0 0 0-.299.212.212 0 0 0-.299 0l-1.065 1.065a.212.212 0 0 0 .299.299l.324-.324c.001.052.02.104.06.144l.606.606-1.792 1.792a.212.212 0 0 0 .299.299l1.792-1.792.063.063.047.688c-.09.297-.193.587-.288.882l-.391-.391a.21.21 0 0 0-.299 0 .21.21 0 0 0 0 .299l.542.542c-.162.486-.331.969-.507 1.449l-.343-.343.231-.231a.212.212 0 0 0 0-.299.212.212 0 0 0-.299 0l-.231.231-.102-.102a.21.21 0 0 0-.299 0 .21.21 0 0 0 0 .299l.102.102-1.073 1.073a.212.212 0 0 0 .299.299l1.073-1.073.477.477a50.872 50.872 0 0 1-.713 1.782l-1.197-1.197a.212.212 0 0 0-.299 0 .21.21 0 0 0 0 .299l.894.894-.978.977-.336-.336a.212.212 0 0 0-.299.299l.336.336-.444.444a.212.212 0 0 0 0 .299.21.21 0 0 0 .299 0l.444-.444.6.6a50.73 50.73 0 0 1-1.01 1.987l-.729-.728.588-.588a.21.21 0 0 0 0-.299.212.212 0 0 0-.299 0l-.588.588-.228-.228a.212.212 0 0 0-.299 0 .212.212 0 0 0 0 .299l.228.228-1.343 1.343a.212.212 0 0 0 .299.299l1.343-1.343.817.816a49.638 49.638 0 0 1-1.087 1.883.197.197 0 0 0-.218-.01l-1.323-1.322a.21.21 0 0 0-.299 0 .21.21 0 0 0 0 .299l1.307 1.306-1.481 1.482-.75-.75a.212.212 0 0 0-.299.299l.21.211-1.266 1.266-.3-.3a.212.212 0 0 0-.299 0 .21.21 0 0 0 0 .299l.3.3-1.085 1.085-.498-.498a.212.212 0 0 0-.299 0 .21.21 0 0 0 0 .299l.498.498-.246.246c-.006.006-.004.015-.009.021l-.514-.006c-.008-.001-.014-.005-.022-.005l-.626-.009a.203.203 0 0 0-.056-.165l-.336-.336 1.121-1.121.037.037a.212.212 0 0 0 .299-.299l-.037-.037 2.134-2.134a.212.212 0 0 0 0-.299.21.21 0 0 0-.299 0l-2.134 2.134-.726-.726.978-.978.496.496a.212.212 0 0 0 .299-.299l-.496-.496 1.148-1.149a.212.212 0 0 0 0-.299.212.212 0 0 0-.299 0l-1.148 1.149-.582-.582 1.517-1.517.99.99a.212.212 0 0 0 .299-.299l-.99-.99.798-.798.049.049a.212.212 0 0 0 .299-.299l-.049-.049.159-.159a.21.21 0 0 0 0-.299.21.21 0 0 0-.299 0l-.159.159-.618-.618.906-.906.683.683a.212.212 0 0 0 .299-.299l-.683-.683 1.283-1.283.123.123a.212.212 0 0 0 .299-.299l-.123-.123.267-.267a.212.212 0 0 0 0-.299.21.21 0 0 0-.299 0l-.267.267-.42-.421 1.265-1.265.3.3a.212.212 0 0 0 .299-.299l-.3-.3.889-.889a.21.21 0 0 0 0-.299.21.21 0 0 0-.299 0l-.889.888-1.451-1.451c-.03-.03-.07-.037-.108-.045.293-.768.579-1.537.862-2.308l1.172 1.171-1.073 1.073a.212.212 0 0 0 .299.299l1.073-1.073.91.91a.212.212 0 0 0 .299-.299l-.91-.91.959-.959c.071.018.118.038.198-.042.072-.072.069-.178.016-.259a.209.209 0 0 0-.062-.15c-.031-.031-.072-.038-.111-.046l-1.282-1.282 1.385-1.385.815.815a.21.21 0 1 0 .298-.299l-.815-.815.04-.04a.21.21 0 0 0 0-.299.21.21 0 0 0-.299 0l-.04.04-1.101-1.101c.708-.019 1.398-.02 2.037.066zm.883 13.323-.496-.497.978-.978.123.123c-.196.454-.395.905-.605 1.352zm-5.285 8.774-1.036-1.036 1.266-1.266.389.39v.001h.001l.448.448c-.345.494-.705.979-1.068 1.463zm1.307-1.822-.239-.24 1.197-1.197c-.309.486-.633.962-.958 1.437zM19.026 56.747c.11-5.367.199-10.853.265-16.326a822.67 822.67 0 0 1 15.571.039l.017.017a.212.212 0 0 0 .299 0c.004-.004.002-.01.006-.014 2.119.022 4.227.047 6.311.073l3.947.048c.503.006 1.005.01 1.506.013l-.015 1.369c-.036 3.619-.111 10.998-.207 14.773a770.579 770.579 0 0 0-27.7.008zm-4.245-16.262a757.86 757.86 0 0 1 3.665-.055c-.066 5.474-.155 10.964-.266 16.331-1.204.021-2.409.049-3.614.076.109-4.515.2-14.352.215-16.352zm9.186-17.943 1.016 1.016-1.481 1.481a.212.212 0 0 0 .299.299l1.481-1.481.663.663a.201.201 0 0 0 .286.005l-.346.346a.212.212 0 0 0 .299.299l1.331-1.331.472.472a.212.212 0 0 0 .299-.299l-.472-.472.796-.796a.212.212 0 0 0 0-.299.21.21 0 0 0-.299 0l-.796.796-.565-.565a.212.212 0 0 0-.299 0 .21.21 0 0 0 0 .299l.565.565-.966.966a.209.209 0 0 0-.005-.286l-.663-.663.927-.927a.21.21 0 0 0 0-.299.212.212 0 0 0-.299 0l-.926.927-1.141-1.141.75-1.828.5.5-.945.945a.212.212 0 0 0 .299.299l.945-.945 1.204 1.204a.212.212 0 0 0 .299-.299l-.48-.48c.032-.01.067-.013.092-.038l.966-.966.094.094a.212.212 0 0 0 .299-.299l-.094-.094.881-.881.689.689a.212.212 0 0 0 .299-.299l-.467-.468a.2.2 0 0 0 .122-.051l.602-.602.688.688-.216.216a.212.212 0 0 0 .299.299l.311-.311c.026-.01.055-.01.076-.032s.021-.05.032-.076l.701-.701c.007-.007.005-.019.011-.027l.086.086a.212.212 0 0 0 .299-.299l-.568-.568.994-.032c-.395 2.946-1.604 5.733-2.783 8.43l-2.918 6.676-.574-.574a.212.212 0 0 0-.299 0 .21.21 0 0 0 0 .299l.691.691-.353.808-.425-.425a.212.212 0 0 0-.299 0 .21.21 0 0 0 0 .299l.542.542-.901 2.063-.415-.415c-.061-.061-.145-.062-.22-.033.014-.068.007-.137-.045-.19l-.164-.164.926-.926a.21.21 0 0 0 0-.299.21.21 0 0 0-.299 0l-.926.926-.495-.495.097-.097c.007.01.004.022.013.031a.21.21 0 0 0 .298 0l1.589-1.589c.025.01.046.03.073.03a.21.21 0 0 0 .149-.361l-.007-.007a.202.202 0 0 0-.052-.126.206.206 0 0 0-.126-.052l-1.37-1.37a.212.212 0 0 0-.299 0 .212.212 0 0 0 0 .299l1.31 1.309-1.42 1.42c-.007-.01-.004-.022-.013-.031a.212.212 0 0 0-.299 0l-.244.244-.153-.147a.21.21 0 0 0-.299 0 .212.212 0 0 0 0 .299l.151.151-1.069 1.069-.386-.386a.212.212 0 0 0-.299.299l.387.386-.284.284a.212.212 0 0 0 .299.299l.284-.284.318.318a.212.212 0 0 0 .149.062c.023 0 .042-.019.064-.027.009.036.014.074.043.102l.516.516-.816.816a.212.212 0 0 0 .299.299l.816-.816.474.474a.212.212 0 0 0 .299-.299l-.474-.474.584-.584a.212.212 0 0 0 0-.299.212.212 0 0 0-.299 0l-.584.584-.516-.516c-.059-.059-.14-.061-.213-.035-.009-.036-.014-.074-.042-.103l-.318-.318 1.069-1.069.495.495-.773.773a.212.212 0 0 0 .299.299l.773-.773.164.164c.087.087.143.062.22.033-.014.068-.008.138.045.19l.532.532-1.086 2.485-.249.001-.7-.7a.212.212 0 0 0-.299.299l.404.403-1.114.005-1.094-1.094a.212.212 0 0 0-.299 0 .21.21 0 0 0 0 .299l.797.797c-.565.003-1.13.004-1.695.008a.21.21 0 0 0-.004-.288l-1.139-1.139 1.46-1.46.737.737a.212.212 0 0 0 .299-.299l-.737-.737.906-.906a.21.21 0 0 0 0-.299.21.21 0 0 0-.299 0l-.906.906-.709-.709 1.439-1.439 1.1 1.1a.212.212 0 0 0 .299-.299l-1.1-1.1 1.203-1.203a.21.21 0 0 0 0-.299.212.212 0 0 0-.299 0L21.12 33.34l-.56-.56 1.375-1.375 1.261 1.261a.212.212 0 0 0 .299-.299l-1.261-1.261 1.353-1.353.747.747a.212.212 0 0 0 .299-.299l-1.991-1.991 1.568-1.568.969.969c.072.072.178.09.279.008.009.015.007.035.02.048a.212.212 0 0 0 .299 0l.718-.718.595.596a.21.21 0 0 0 .299 0 .21.21 0 0 0 0-.299l-.595-.596 1.006-1.006a.212.212 0 0 0 0-.299.21.21 0 0 0-.299 0l-1.006 1.006-.667-.667a.212.212 0 0 0-.299.299l.667.667-.701.702c-.008-.013-.005-.029-.016-.04l-.969-.969.524-.523a.212.212 0 0 0 0-.299.21.21 0 0 0-.299 0l-.524.524-1.191-1.191.947-2.312zm7.366-4.648.48.479c-.008.006-.019.004-.027.011l-.605.605-.688-.688.393-.393.447-.014zm-1.138.108-.07-.07.144-.005-.074.075zm-.643-.045.344.344-.602.602a.202.202 0 0 0-.051.122l-1.031-1.032 1.337-.043c.002.002.001.005.003.007zm-3.085 3.312-.479-.479 1.031-1.031.452.452-.966.966c-.025.025-.028.06-.038.092zm-.605-1.939a.212.212 0 0 0 .299 0l.215-.215.345.345-1.031 1.031-.601-.601c-.008-.008-.02-.005-.029-.012l.605-1.475.413.413-.215.215a.21.21 0 0 0-.001.299zm1.771-1.318.278.278c-.011.007-.025.005-.035.014l-.857.857-.345-.345.799-.799.16-.005zm-.315 1.448.857-.857c.01-.01.007-.024.014-.035l.462.462-.881.881-.452-.451zm-.942-.943-.451-.451.932-.03-.481.481zm15.203-.949.778.778-.642.642a.212.212 0 0 0 .299.299l.642-.642.657.657-1.383 1.383-1.071-1.071c.17-.666.301-1.344.373-2.035l.347-.011zm2.378.004 1.616 1.616c.197.197.498-.1.299-.299l-1.413-1.413 1.445-.046c.01.026.01.055.031.076l1.345 1.345a.212.212 0 0 0 .299-.299l-1.14-1.14.943-.03h.014l.399-.013 1.046-.032a38.208 38.208 0 0 1-.377 2.824l-1.109-1.108a.212.212 0 0 0-.299.299l1.127 1.127c.087.087.139.061.213.035a37.92 37.92 0 0 1-1.81 6.646c-.581 1.545-1.275 3.063-1.998 4.559l-.217-.217.148-.148a.212.212 0 0 0 0-.299.212.212 0 0 0-.299 0l-.148.148-1.005-1.005a.21.21 0 0 0-.299 0 .21.21 0 0 0 0 .299l1.005 1.005-1.994 1.994a.212.212 0 0 0 .299.299l1.994-1.994.322.322c-.382.782-.768 1.56-1.153 2.327l-.466.929-.423-.424a.207.207 0 0 0-.059-.156.206.206 0 0 0-.156-.059l-.783-.783a.212.212 0 0 0-.299 0 .21.21 0 0 0 0 .299l.741.741-1.779 1.778-.378-.378c-.032-.032-.074-.041-.116-.048l.452-.452a.21.21 0 0 0 0-.299.21.21 0 0 0-.299 0l-2.922 2.922c-.009-.038-.015-.077-.044-.106l-1.473-1.473 2.043-2.042.852.852a.212.212 0 0 0 .299-.299l-.852-.852.611-.611a.212.212 0 0 0 0-.299.21.21 0 0 0-.299 0l-.612.611-.888-.888 1.548-1.548.864.864a.21.21 0 0 0 .299 0 .212.212 0 0 0 0-.299l-.864-.864 1.759-1.759a.212.212 0 0 0 0-.299.21.21 0 0 0-.299 0l-1.759 1.759-.559-.559 2.438-2.438.73.73a.212.212 0 0 0 .299 0c.058-.057.06-.136.038-.208.103.075.198.059.27-.012l.708-.708 1.119 1.119-1.269 1.269a.212.212 0 0 0 .299.299l1.4-1.4c.008-.006.019-.004.026-.011.007-.007.005-.018.011-.026l1.052-1.052.907.907a.212.212 0 0 0 .299-.299l-.907-.907.748-.748a.212.212 0 0 0 0-.299.21.21 0 0 0-.299 0l-.748.748-.576-.576a.21.21 0 0 0-.299 0 .212.212 0 0 0 0 .299l.576.576-.921.921-1.119-1.119 1.6-1.6a.21.21 0 0 0 0-.299.21.21 0 0 0-.299 0l-1.6 1.6-.246-.246a.212.212 0 0 0-.299 0 .21.21 0 0 0 0 .299l.246.246-.708.708c-.049.049-.059.115-.05.179l-.689-.689 2.023-2.023c.094-.025.161-.069.16-.191.044-.08.046-.178-.022-.246-.051-.051-.119-.059-.184-.047l-1.417-1.417 2.009-2.01.302.302a.212.212 0 0 0 .299-.299l-.334-.334c.014-.067.007-.137-.045-.19-.052-.052-.122-.059-.19-.045l-.491-.491 1.383-1.383.496.496a.212.212 0 0 0 .299-.299l-.496-.496.28-.28a.21.21 0 0 0 0-.299.21.21 0 0 0-.299 0l-.28.28-.657-.657.665-.665c.05-.05.059-.115.049-.18l.256-.008c.011.031.012.061.034.083zm2.59-4.855c-.045-.021-.086-.047-.13-.069l.031-.031.099.1zm.642.045-.443-.442.483-.483.579.578-.079.079a.21.21 0 0 0 .149.361.209.209 0 0 0 .149-.062l.079-.079.429.429a5.471 5.471 0 0 1-.769-.074c-.11-.018-.22-.032-.328-.056-.065-.013-.138-.036-.207-.054.018-.069.013-.143-.042-.197zm1.261-2.146.579.579-.922.922-.579-.578.922-.923zm3.137 2.696c.004 1.032.005 2.063.005 3.094-1.259.035-2.522.077-3.786.118-.002-.862-.008-1.724-.019-2.59 1.275.172 2.749-.101 3.8-.622zm4.949 7.677c.009.016.007.035.02.049a.212.212 0 0 0 .299 0l.612-.612 1.211 1.211-.93.93-1.31-1.31.098-.268zm.132-.362.264-.735.236.236-.5.499zm.556-1.04a.202.202 0 0 0-.168-.054c.251-.713.501-1.426.743-2.14l1.051 1.051-1.385 1.385-.241-.242zm-9.583 20.168-.001.004-.26-.003h-.005c-.641 0-1.282-.008-1.922-.016l-3.895-.047 2.445-4.872c1.191-2.372 2.422-4.826 3.376-7.362a38.76 38.76 0 0 0 2.317-10.147c.778-.025 1.557-.051 2.333-.072l.382-.013c1.542-.052 3.073-.102 4.604-.149a188.328 188.328 0 0 1-9.374 22.677zm7.009-11.633a.212.212 0 0 0 .299 0l.462-.462.421.42-1.283 1.283-.897-.897c.25-.608.495-1.218.738-1.828l.723.723-.462.462a.212.212 0 0 0-.001.299zm-4.71 9.744a.212.212 0 0 0 .299 0l.713-.714.726.726L50.557 39l-1.09-1.09c.241-.507.479-1.016.716-1.526l.47.47-.713.714a.211.211 0 0 0 0 .298zm.425 1.924.192-.192.197.197-.389-.005zm-.591-.007-1.203-.014c.237-.483.469-.97.702-1.456l.985.985-.484.485zm.599-3.808.067-.144a.205.205 0 0 0 .123-.051l.785-.786.582.582-.978.978-.579-.579zm.517-1.12.1-.217.058.058-.158.159zm.285-.63a179.1 179.1 0 0 0 .93-2.104l.759.759-1.517 1.517-.172-.172zm1.114-2.518c.161-.372.315-.748.474-1.121l.306.306c-.026.074-.025.155.035.215.087.086.14.061.215.035l.643.642-.798.798-.875-.875zm.652-1.542c.179-.425.362-.847.538-1.273l.77.77-.906.906-.402-.403zm1.62-3.952c.24-.607.473-1.216.706-1.824l1.409 1.409-1.265 1.265-.85-.85zm-19.95 13.399-.64-.641.433-1.196.535-.535 1.473 1.473a.21.21 0 0 0 .149.062c.008 0 .014-.008.023-.009a.201.201 0 0 0 .053.172.212.212 0 0 0 .299 0l.345-.345.823.822-.015.015c-.06.06-.061.143-.033.218l-3.445-.036zm6.125-19.525.896.896-.642.642a.212.212 0 0 0 .299.299l.642-.642.459.459-2.009 2.01-.477-.477c-.064-.064-.155-.063-.232-.027l.085-.236c.346-.956.698-1.928.979-2.924zm-1.159 3.419c.01.022.009.048.028.067l.477.477-1.102 1.102.597-1.646zm-.901 2.486c.038-.009.077-.015.106-.044l1.598-1.599 1.383 1.383-1.944 1.943-1.288-1.288.145-.395zm-.302.834 1.148 1.148-2.438 2.438-.007-.007 1.297-3.579zm-1.643 4.531c.002-.002.005-.001.007-.003l.345-.345.559.559-1.548 1.548.637-1.759zm-.796 2.197 1.047 1.047-2.042 2.042-.091-.091 1.086-2.998zm-2.123 5.856.195.195-.265-.003.07-.192zm5.481-2.829c.007.041.016.084.048.116l.378.378-.048.048a.212.212 0 0 0 .299.299l.048-.048.064.064-1.68 1.68-.823-.822 1.714-1.715zm3.283-.804-1.193 2.376c-.005-.006-.003-.014-.008-.02l-.695-.695.12-.12a.21.21 0 0 0 0-.299.212.212 0 0 0-.299 0l-.12.12-.064-.064 1.779-1.778.48.48zm-3.667 3.883c-.01-.02-.008-.044-.025-.061l-.183-.183 1.68-1.68.695.695a.208.208 0 0 0 .138.057l-.598 1.191c-.567-.005-1.137-.012-1.707-.019zm3.747-21.613-.498-.498 1.028-.033-.53.531zm-3.694 4.676-2.545 7.023-.009-.008a.21.21 0 0 0-.299 0 .21.21 0 0 0 0 .299l.148.148-3.411 9.41a956.926 956.926 0 0 0-7.606-.04l5.656-12.943c1.22-2.792 2.476-5.68 2.868-8.795l6.616-.211c-.203 1.755-.818 3.461-1.418 5.117zM18.869 39.578c-.464.005-.929.014-1.393.021l1.155-1.154 1.13 1.13c-.298.001-.595 0-.892.003zm3.975-14.297 1.066 1.066-1.568 1.568-.387-.387c-.008-.008-.02-.005-.028-.012l.917-2.235zm-1.085 2.647.285.285-.681.681.396-.966zm-.611 1.488a.206.206 0 0 0 .292-.003l.902-.902.946.945-1.353 1.353-.923-.923c-.013-.013-.033-.011-.048-.02l.184-.45zm-.35.855.838.838-1.375 1.375-.263-.263.8-1.95zm-.974 2.374.138.138-.194.194a.212.212 0 0 0 .299.299l.194-.194.56.56-1.439 1.439-.394-.395.836-2.041zm-1.01 2.464.269.269-.215.215a.212.212 0 0 0 .299.299l.215-.215.709.709-1.46 1.46-.666-.666.849-2.071zm-1.023 2.496.541.541-1.293 1.293.752-1.834zm31.262-24.477c-.008-.04-.015-.081-.046-.112l-.601-.601.922-.922.54.54-.232.232a.212.212 0 0 0 .149.361.21.21 0 0 0 .149-.062l.232-.232.273.273a.21.21 0 1 0 .298-.299l-.273-.273.903-.903.459.459a.211.211 0 0 0 .298-.299l-.459-.459.807-.807.086.086a.21.21 0 1 0 .298-.299l-.086-.086.322-.322a.21.21 0 0 0 0-.299.21.21 0 0 0-.299 0l-.322.322-.521-.521.807-.807.385.385a.21.21 0 1 0 .298-.299l-.381-.384.067-.067a.21.21 0 0 0 0-.299.21.21 0 0 0-.299 0l-.067.067-.617-.616.644-.644c.014-.013.011-.033.02-.049.261.37.476.752.612 1.114.938 2.487-.715 5.57-4.366 5.822zm2.016-2.296-.903.903-.54-.54.903-.903.54.54zM45.89 5.497c1.006-.768 2.973-1.63 4.29-1.312.906.224 1.775.916 2.412 1.714-.037.009-.075.014-.104.043l-.658.659c-.081-.046-.18-.048-.249.021a.21.21 0 0 0 0 .299l.881.88-.807.807-.041-.041a.212.212 0 0 0-.299 0 .21.21 0 0 0 0 .299l.861.861-.807.807-.581-.581a.208.208 0 0 0-.057-.161.2.2 0 0 0-.161-.057l-.482-.482a.212.212 0 0 0-.299 0 .21.21 0 0 0 0 .299l.442.442-.903.903-.579-.579.473-.473a.21.21 0 0 0 0-.299.21.21 0 0 0-.299 0l-.503.503c-.069-.017-.142-.011-.196.043-.054.054-.06.126-.043.195l-.952.952-.537-.537a.21.21 0 0 0-.299 0 .21.21 0 0 0 0 .299l.537.537-.483.483-.747-.746a.212.212 0 0 0-.299 0 .212.212 0 0 0 0 .299l.747.746-.124.124c-2.518-1.582-2.727-4.967-.134-6.947zM16.037 22.081l-1.22-1.22a.212.212 0 0 0-.299 0 .21.21 0 0 0 0 .299l1.37 1.371a118.925 118.925 0 0 1-3.473 9.139.207.207 0 0 0-.054-.13.21.21 0 0 0-.299 0l-1.848 1.848-1.107-1.108a.212.212 0 0 0-.299.299l1.107 1.108-.469.469a.212.212 0 0 0 .299.299l.468-.468.227.227a.212.212 0 0 0 .299-.299l-.227-.227 1.81-1.81a118.932 118.932 0 0 1-3.557 7.52c-.506-.097-.98-.22-1.421-.368l1.058-1.058.511.511a.212.212 0 0 0 .299-.299l-.511-.511.499-.499a.21.21 0 0 0 0-.299.21.21 0 0 0-.299 0l-.497.497-.298-.298.958-.958.448.448a.212.212 0 0 0 .299-.299l-.448-.448 1.154-1.154a.21.21 0 0 0 0-.299.21.21 0 0 0-.299 0l-1.154 1.154-.894-.894a.21.21 0 0 0-.299 0 .212.212 0 0 0 0 .299l.895.895-.958.958-1.129-1.129c-.05-.05-.115-.06-.179-.05.023-.073.021-.152-.037-.21l-.636-.636 2.59-2.59a.212.212 0 0 0 0-.299.21.21 0 0 0-.299 0l-2.589 2.59-1.405-1.405 1.555-1.555L6.8 32.613a.212.212 0 0 0 .299-.299l-1.121-1.121 1.406-1.406.515.515a.212.212 0 0 0 .299-.299l-.518-.513.321-.322a.21.21 0 0 0 0-.299.21.21 0 0 0-.299 0l-.322.322-1.257-1.257.873-.873 1.799 1.799a.21.21 0 1 0 .298-.299l-1.799-1.799 1.597-1.597.902.902a.212.212 0 0 0 .299-.299l-.652-.652c.032-.01.066-.013.09-.038l.702-.702.545.545a.212.212 0 0 0 .299-.299l-.545-.545.975-.975c.002-.002.005-.001.007-.003s.001-.005.003-.007l.762-.762a.212.212 0 0 0 0-.299.21.21 0 0 0-.299 0l-.618.618-1.065-1.065.916-.916.804.804a.212.212 0 0 0 .299-.299l-.804-.804.28-.28a.21.21 0 0 0 0-.299.21.21 0 0 0-.299 0l-.28.28-.575-.574.639-.639 2.26 2.26a.212.212 0 0 0 .299-.299l-.47-.47.98-.98.664.664a.212.212 0 0 0 .299 0c.022-.022.023-.053.034-.081.023-.01.05-.009.069-.028l.469-.469.129.129a.212.212 0 0 0 .299-.299l-.129-.129.129-.129a.21.21 0 0 0 0-.299.21.21 0 0 0-.299 0l-.129.129-.457-.457 1.171-.037.611-.019a109.178 109.178 0 0 1-1.168 3.738zM2.965 35.173l.921.922-.246.246a7.727 7.727 0 0 1-.675-1.168zm-.392-.99a11.984 11.984 0 0 1-.376-1.427l.355-.679.972.971-.17.17a.212.212 0 0 0 .299.299l.17-.17 1.406 1.406-1.044 1.044-1.612-1.614zm10.869-15.719.608.607-.98.98-1.525-1.525.001-.001 1.896-.061zm1.486-.048c.002.052.02.103.059.143l.597.597-.425.426-.511-.511.087-.087a.21.21 0 0 0 0-.299.21.21 0 0 0-.299 0l-.087.087-.327-.327.906-.029zm-5.353 1.849a.212.212 0 0 0 .299 0l.469-.469.575.574-.916.916-1.022-1.022c-.065-.065-.158-.064-.237-.026l.701-1.341.6.6-.469.469a.212.212 0 0 0 0 .299zm.151-1.683L11 18.541l-.657.657-.617-.616zm-1.093 1.866c.007.041.016.083.048.115l1.022 1.022-.83.83-.788-.788c-.015-.016-.038-.014-.056-.023l.604-1.156zm.56 4.418.011-.011-.007.016-.004-.005zm.193-.493a.21.21 0 0 0-.299 0l-.194.194-.787-.787.767-.767 1.065 1.065-.52.52c.03-.077.03-.163-.032-.225zm-.215-1.659.831-.831 1.065 1.065-.831.831-1.065-1.065zm-1.336-.739.739.739-.767.767-.499-.499.527-1.007zm-.732 1.399.405.405-.873.873a.212.212 0 0 0 .299.299l.873-.873.788.788-1.597 1.597-.788-.788a.212.212 0 0 0-.299 0 .21.21 0 0 0 0 .299l.788.788-.873.873-.624-.624 1.901-3.637zm-2.107 4.029.531.531-1.406 1.406-.09-.09.965-1.847zm.83.83 1.257 1.257-1.406 1.406-1.257-1.257 1.406-1.406zm-2 1.409 1.552 1.552-1.555 1.555L2.8 31.726c-.015-.015-.036-.013-.053-.022l1.079-2.062zM14.484 12.86c-.431-.147-.124-.028-.498-.214l.463-.463c.106.106.797.846.934.846a.211.211 0 0 0 .149-.361l-.784-.784.417-.417.706.706-.277.277a.212.212 0 0 0 .149.361c.13 0 .325-.238.426-.339.292.292.68.796.823.41.211.155.55-.292.745-.486l.42.42c-1.263.443-2.645.409-3.673.044zm4.173-1.981-.919.919-.447-.447.919-.919.447.447zm-1.218 1.218c-.091.091-.455.435-.503.543l-.467-.467.523-.523.447.447zm1.144.547-.547-.547.919-.919c.088.088.681.708.799.749-.408.346-.662.488-1.171.717zm1.421-.964c-.01-.03-.012-.063-.036-.087l-.714-.714.904-.904.186.186a.21.21 0 1 0 .298-.299l-.977-.978.645-.644.49.49a.21.21 0 1 0 .298-.299l-.49-.49.185-.185a.21.21 0 0 0 0-.299.21.21 0 0 0-.299 0l-.184.185-.63-.63.753-.753c.24.349.436.707.564 1.046.569 1.507.162 3.216-.993 4.375zm-8.385-3.069c.339-3.266 4.462-4.825 6.13-4.426.915.226 1.792.926 2.431 1.729l-.871.871c-.022.022-.023.052-.033.08-.009.006-.02.004-.028.012a.21.21 0 0 0 0 .299l.764.764-.656.656c-.081-.053-.187-.056-.26.016-.072.072-.069.178-.016.26l-.014.014a.21.21 0 0 0 .149.361.209.209 0 0 0 .149-.062l.003-.003.493.493-.904.904-.507-.507a.204.204 0 0 0-.053-.127.21.21 0 0 0-.127-.053l-.367-.367a.212.212 0 0 0-.299 0 .21.21 0 0 0 0 .299l.307.307-.919.919-.49-.49a.212.212 0 0 0-.299 0 .21.21 0 0 0 0 .299l.49.49-.523.523-.706-.706 1.109-1.109a.21.21 0 0 0 0-.299.212.212 0 0 0-.299 0l-1.109 1.109-.125-.125a.21.21 0 0 0-.299 0 .212.212 0 0 0 0 .299l.125.125-.417.417-.505-.505a.21.21 0 0 0-.299 0 .21.21 0 0 0 0 .299l.505.505-.556.556c-1.333-.839-2.127-2.33-1.974-3.827zm3.195 8.962c-.007-1.248-.021-2.5-.04-3.748 1.068.251 2.556.213 3.806-.258.005 1.295.006 2.592.006 3.888l-2.255.072-1.517.046zM1.902 26.039c.111-2.542.496-5.313 2.516-6.592 1.175-.74 2.711-.786 3.948-.822l.271-.009-6.654 12.726c-.185-1.695-.156-3.507-.081-5.303zm1.993 10.644.29-.29.757.757a.212.212 0 0 0 .299-.299l-.757-.757 1.044-1.044.636.636a.21.21 0 0 0 .149.062c.011 0 .019-.011.03-.012-.023.073-.021.152.037.21l1.156 1.156c-.022.072-.02.15.038.208.087.087.136.06.208.038l.324.324-1.087 1.087a.208.208 0 0 0-.057.137c-1.357-.525-2.303-1.253-3.067-2.213zm8.933 2.997a21.113 21.113 0 0 1-3.184-.146A119.897 119.897 0 0 0 18.1 18.317l.923-.029.009-.002 5.843-.186-7.59 18.511a.203.203 0 0 0-.133.055.207.207 0 0 0-.006.284l-1.095 2.67-1.697.025-1.526.035zm45.203 19.981a2.413 2.413 0 0 1-1.014 1.521c-.924.596-2.138.668-3.407.692-3.07.078-38.927-.587-41.284-.266-.902.12-1.922.257-2.839-.02-1.902-.58-2.116-2.625-.24-3.452 2.339-1.029 36.3-.628 45.964-.364 1.577.042 3.102.338 2.82 1.889zm-6.843-2.835a364.457 364.457 0 0 0-3.615-.073c.096-3.789.17-11.163.206-14.778l.015-1.368 3.651.045c-.056 5.157-.14 10.457-.257 16.174zm2.358-16.994-.281-.281 1.085-1.085 1.039 1.039c.016.016.038.014.057.024-.051.067-.099.137-.15.204a.427.427 0 0 0-.059.119l-.324-.002-1.367-.018zm9.62-2.726c-.001 0-.001 0 0 0-.749 1.138-2.051 1.991-3.664 2.401-1.05.265-2.15.33-3.244.342a50.729 50.729 0 0 0 7.471-13.939c.112 1.651.223 3.299.34 4.957.159 2.324.21 4.55-.903 6.239z"/><path d="m13.351 26.672-1.346 1.346-.724-.724a.212.212 0 0 0-.299 0 .21.21 0 0 0 0 .299l.724.724-.938.938a.21.21 0 0 0 .149.361.209.209 0 0 0 .149-.062l.938-.938.579.579a.21.21 0 0 0 .149.062.209.209 0 0 0 .135-.056l-1.673 1.673-1.193-1.193a.21.21 0 0 0-.299 0 .21.21 0 0 0 0 .299l1.193 1.193-.767.767a.212.212 0 0 0 .299.299l.767-.767.234.234a.212.212 0 0 0 .299-.299l-.234-.234 1.693-1.693a.21.21 0 0 0 0-.299.21.21 0 0 0-.299 0 .209.209 0 0 0-.006-.285l-.579-.579 1.346-1.346c.198-.196-.099-.497-.297-.299z"/><path d="M13.411 21.627a.212.212 0 0 0-.299 0 .21.21 0 0 0 0 .299l.831.831-.681.681-.532-.532a.212.212 0 0 0-.299 0 .21.21 0 0 0 0 .299l.532.532-.823.823c-.064-.009-.128.001-.177.05-.049.049-.059.114-.05.177l-.206.206a.212.212 0 0 0 .299.299l.17-.17.639.639-1.023 1.023a.212.212 0 0 0 .299.299l1.023-1.023.366.366a.212.212 0 0 0 .299-.299l-.366-.366.788-.788.346.346a.212.212 0 0 0 .299-.299l-.346-.346.256-.256a.212.212 0 0 0 0-.299.21.21 0 0 0-.299 0l-.256.256-.639-.639.682-.681.472.472a.212.212 0 0 0 .299-.299l-.472-.472.303-.302a.212.212 0 0 0 0-.299.212.212 0 0 0-.299 0l-.303.303-.833-.831zm.489 3.047-.788.788-.639-.639.788-.788.639.639zM29.423 22.892a.212.212 0 0 0 .299 0l.902-.902.344.344a.202.202 0 0 0 .123.051l-1.174 1.174-.451-.452a.212.212 0 0 0-.299.299l.451.452-.838.838a.212.212 0 0 0 .299.299l.837-.837.174.175a.212.212 0 0 0 .299-.299l-.174-.175 1.333-1.333a.21.21 0 0 0 0-.299c-.062-.062-.147-.062-.224-.031a.204.204 0 0 0-.058-.159l-.344-.344.729-.729c.004 0 .007.005.012.005a.203.203 0 0 0 .206-.223l.106-.106a.21.21 0 0 0 0-.299.212.212 0 0 0-.299 0l-.065.065-.43-.429a.212.212 0 0 0-.299.299l.43.429-.723.724c-.064-.01-.129 0-.179.05-.049.049-.059.115-.05.179l-.937.937a.21.21 0 0 0 0 .297zM27.878 27.654a.212.212 0 0 0 .299 0l1.095-1.095.216.215a.212.212 0 0 0 .299-.299l-.216-.215.795-.795a.212.212 0 0 0 0-.299.212.212 0 0 0-.299 0l-.795.795-.494-.494a.212.212 0 0 0-.299.299l.494.494-1.095 1.095a.212.212 0 0 0 0 .299zM28.731 27.833l-.681.681-.687-.687a.21.21 0 0 0-.299 0 .21.21 0 0 0 0 .299l.687.687-.816.816a.212.212 0 0 0 .299.299l.816-.816.31.31a.212.212 0 0 0 .299-.299l-.31-.31.681-.681a.21.21 0 0 0 0-.299.212.212 0 0 0-.299 0zM27.566 30.328l-.418.418-1.074-1.073a.21.21 0 0 0-.299 0 .212.212 0 0 0 0 .299l1.073 1.073-1.202 1.202a.212.212 0 0 0 .299.299l1.202-1.202.264.264a.212.212 0 0 0 .299-.299l-.264-.264.418-.418a.21.21 0 0 0 0-.299.21.21 0 0 0-.298 0zM26.976 27.446a.212.212 0 0 0-.299 0l-2.016 2.017a.21.21 0 0 0 0 .299.21.21 0 0 0 .299 0l2.016-2.017a.212.212 0 0 0 0-.299z"/><path d="m29.019 22.028.313.313a.212.212 0 0 0 .299-.299l-.313-.313.341-.341a.212.212 0 0 0 0-.299.212.212 0 0 0-.299 0l-.341.341-.437-.437a.212.212 0 0 0-.299.299l.437.437-.285.284a.212.212 0 0 0 .299.299l.285-.284zM45.79 24.413l1.038-1.038a.21.21 0 0 0 0-.299.21.21 0 0 0-.299 0l-1.038 1.038-.049-.049a.212.212 0 0 0-.299 0 .21.21 0 0 0 0 .299l.049.049-.51.51a.212.212 0 0 0 .299.299l.51-.51 1.074 1.074a.212.212 0 0 0 .299-.299l-1.074-1.074zM44.287 22.782a.212.212 0 0 0 .299 0l1.651-1.651c.01.023.009.049.028.068l1.224 1.224a.212.212 0 0 0 .299-.299L46.564 20.9c-.019-.019-.045-.018-.068-.028l.828-.828a.21.21 0 0 0 0-.299.212.212 0 0 0-.299 0l-2.739 2.739a.212.212 0 0 0 .001.298zM42.607 23.867a.212.212 0 0 0-.299 0 .21.21 0 0 0 0 .299l1.763 1.763a.212.212 0 0 0 .299-.299l-1.763-1.763zM41.951 31.281l-.944.944-1.17-1.17a.212.212 0 0 0-.299.299l1.17 1.17-1.367 1.368a.212.212 0 0 0 .299.299l1.367-1.368.353.353a.21.21 0 0 0 .299 0 .21.21 0 0 0 0-.299l-.353-.353.944-.944a.21.21 0 0 0 0-.299.212.212 0 0 0-.299 0z"/></svg>