<svg xmlns="http://www.w3.org/2000/svg" enable-background="new 0 0 48 48" viewBox="0 0 48 48"><path d="M12.2,7.5c-0.1-0.5-0.3-1-0.5-1.5c0-0.1,0-0.1,0-0.2c0-0.4-0.3-0.8-0.8-0.8c-0.4,0-0.8,0.4-0.8,0.8c0,0.1,0,0.2,0,0.4
		c0,0.1-0.1,0.3-0.1,0.5C9.9,7,9.9,7.3,9.9,7.6c0,0.6,0,1.3,0,1.9c0,1.3-0.1,2.5-0.1,3.8c0,0.7,0.6,1.3,1.3,1.3s1.3-0.6,1.3-1.3
		c0-1.3,0.1-2.5,0-3.8C12.4,8.8,12.3,8.2,12.2,7.5z"/><path d="M42.9 5.2c-.1-.1-.1-.2-.2-.3-.1-.1-.3-.2-.4-.3-.2-.2-.6-.2-.9-.2-.1 0-.1 0-.2 0-.2 0-.4 0-.6.1-.3 0-.7.1-1 .1-1.6.1-3.2.2-4.7.3-1.7.1-3.4.2-5.1.3-1.6.1-3.3.1-4.9.1-.9 0-1.7 0-2.5 0-.4 0-.8 0-1.2.1-.4 0-.8.1-1.1.2H20c0-.5-.1-1-.1-1.5-.1-.9-.2-1.8-.3-2.8 0-.4-.1-.7-.4-.9C18.7.1 18.4 0 18 0c-.3 0-.7.1-.9.4L17 .5c-.1 0-.2 0-.3 0-.4 0-.8 0-1.1 0-.4 0-.8 0-1.2 0-1.4 0-2.9.1-4.3 0-.9 0-1.8-.2-2.6.1-.1 0-.2.1-.3.1C6.9.9 6.8 1 6.6 1.2c-.1 0-.1.1-.2.2C6.3 1.6 6.2 1.8 6.1 1.9 5.9 2.5 5.8 3.1 5.7 3.7 5.4 5.2 5.3 6.8 5.2 8.4 5.1 9.9 5 11.4 5 12.9c0 .7-.1 1.4-.2 2.1 0 .3 0 .6-.1.9 0 .2 0 .4 0 .6 0 .4.2.8.4 1.2.1.3.4.5.7.7.1 0 .1.1.2.1.2.1.4.2.6.2C6.9 19 7.4 19 7.7 19.1c.2 0 .4.1.7.1.8.1 1.6.1 2.4.1.8 0 1.6 0 2.4 0 .7 0 1.5-.1 2.2-.1.3 0 .7 0 1 0 .2 0 .4 0 .7-.1.4-.1.7-.2 1.1-.4.3-.1.5-.4.7-.6.2-.3.4-.5.5-.8.2-.5.4-1 .4-1.5 0-.3.1-.6.1-.8.1 0 .3.1.4.1 2.8-.1 5.6-.1 8.4-.1 1.6 0 3.1-.1 4.6-.3 1.4-.1 2.9-.3 4.3-.4.7 0 1.4-.1 2.1-.2.3 0 .7-.1 1-.1.5-.1.9-.1 1.3-.4.4-.2.7-.6.8-1.1.1-.2.1-.5.1-.8s.1-.7.1-1c.1-.5.1-1.1.2-1.6.1-.8.2-1.6.1-2.5C43.2 6.1 43.1 5.6 42.9 5.2zM17.6 13.9c-.1.6-.2 1.3-.5 1.9C17 15.9 17 16 16.9 16.1l-.1.1-.1.1c-.7.2-1.5.3-2.2.5-1.9.2-3.9.3-5.8.1-.4-.1-.7-.2-1-.3 0 0-.1 0-.1-.1l0 0 0 0c-.1-.2-.1-.4-.1-.6-.2-1.5-.2-3-.2-4.5 0-1.7.1-3.3.2-5C7.6 5.5 7.8 4.6 8 3.8c.1-.2.1-.3.2-.5l0 0 0 0c.6-.2 1-.2 1.5-.3 1.3-.2 2.6-.3 3.9-.4.7 0 1.3-.1 2-.1.4 0 .8-.1 1.3-.2l0 0c.1 1 .3 2.1.4 3.1 0-.1 0-.2 0-.2C17.6 8.1 17.9 11 17.6 13.9zM40.2 11.3C40.1 11.3 40.1 11.3 40.2 11.3 40.2 11.2 40.2 11.2 40.2 11.3 40.2 11.2 40.2 11.2 40.2 11.3zM40.7 8.3c-.1.7-.3 1.5-.5 2.2-.1.2-.1.5-.2.7 0 .1 0 .2 0 .2s0 0-.1 0c-1 .4-2.1.6-3.2.7-1.3.1-2.6.2-4 .2-1.5 0-3 0-4.5 0-.7 0-1.3 0-2 0-2 0-4 0-6-.1-.1 0-.1 0-.2 0 0-.4 0-.9 0-1.3 0-1.3-.1-2.5-.2-3.7.1 0 .2.1.4.1.3.1.6.1.8.1.5.1 1 0 1.5 0 .9 0 1.9-.1 2.8-.2s1.8-.1 2.7-.1c1 0 2 0 3 0 1.9 0 3.7 0 5.6 0 .5 0 1 0 1.5 0 .9 0 1.8 0 2.7 0l0 0C40.7 7.5 40.7 7.9 40.7 8.3zM27.1 29.5C27.2 29.5 27.2 29.5 27.1 29.5c.1 0 .1 0 .1 0S27.2 29.5 27.1 29.5zM33.3 39.3c.1 0 .2 0 .3 0h.1C33.6 39.2 33.4 39.2 33.3 39.3z"/><path d="M39.3,23.4c-0.2,0-0.3-0.1-0.5-0.1c-0.3,0-0.6,0.1-0.9,0.2c-0.4,0.2-0.7,0.6-0.9,1c-0.4,1,0,2.2,0.6,3.1c0,0,0,0.1,0.1,0.1
		h-0.1c-0.6,0.2-1.1,0.3-1.7,0.4c-0.3,0-0.6,0.1-0.8,0.2l0,0c0-0.4-0.1-0.8-0.2-1.2c-0.2-1.1-0.8-2.1-1.4-3
		c-0.4-0.6-0.9-1.1-1.5-1.5c-0.2-0.2-0.5-0.3-0.7-0.5c-0.3-0.1-0.6-0.3-0.8-0.4c-0.6-0.2-1.2-0.4-1.8-0.5c-1.3-0.3-2.5-0.4-3.8-0.6
		c-0.5,0-1.1-0.1-1.6-0.1c-0.7,0-1.4,0-2.1,0.1c-0.7,0-1.3,0.1-2,0.3c-0.7,0.1-1.3,0.4-1.9,0.7c-0.2,0.1-0.5,0.3-0.7,0.5
		c-0.1,0.1-0.3,0.2-0.4,0.3c-0.2,0.2-0.5,0.5-0.7,0.7C14,24.8,13.1,26.9,13,29c-0.2,0-0.4-0.1-0.6-0.1c-0.4-0.1-0.8-0.2-1.2-0.3
		c-0.3-0.1-0.5-0.3-0.8-0.4c0.2,0,0.5,0,0.7-0.2c0.2-0.1,0.5-0.4,0.6-0.7c0-0.2,0.1-0.4,0.1-0.7c0-0.2,0-0.4,0-0.6
		c-0.1-0.5-0.2-0.9-0.6-1.2c-0.2-0.3-0.5-0.5-0.9-0.6C10.1,24,9.9,24,9.8,24c-0.3,0-0.5,0-0.8,0.1c-0.9,0.3-1.5,1.1-1.9,1.9
		C7,26.2,7,26.4,7,26.6c0,0.1,0,0.2,0,0.3c0,0.2,0,0.4,0.1,0.7c-0.1,0.2,0,0.4,0.1,0.6c0.1,0.1,0.1,0.2,0.2,0.3
		c0.1,0.2,0.3,0.4,0.4,0.5c0.3,0.3,0.6,0.6,1,0.8C9,30,9.2,30.1,9.4,30.3c0.2,0.2,0.5,0.3,0.7,0.4C10,30.8,9.9,30.9,9.9,31
		c-0.1,0.2-0.1,0.3-0.2,0.5c0,0.2-0.1,0.3-0.1,0.5c-0.1,0.8-0.1,1.6-0.2,2.4c0,0.8,0,1.5-0.1,2.3c0,0.7-0.1,1.3-0.1,2
		c-0.1,0.8-0.2,1.6-0.1,2.4c0.1,0.5,0.4,1.1,0.9,1.4c0.1,0,0.2,0.1,0.2,0.1c0,0.1-0.1,0.2-0.1,0.3C10,43.3,10,43.6,9.9,44
		c0.1,0.5,0,1,0,1.5c0,0.2,0,0.6,0.1,0.7c0.1,0.2,0.1,0.4,0.3,0.6c0.3,0.5,0.8,0.7,1.3,0.9c0.3,0.1,0.6,0.1,0.9,0.1
		c0.2,0,0.3,0,0.5,0c0.3,0,0.7,0,1,0c0.6,0,1.3-0.1,1.9-0.1c0.4,0,0.7-0.1,1.1-0.1c0.3,0,0.7-0.1,1-0.3c0.9-0.5,1.2-1.5,1.1-2.4
		c0-0.7-0.2-1.4-0.3-2.1c0-0.2-0.1-0.3-0.2-0.5c0.1,0,0.3,0,0.4,0c3.2-0.1,6.4-0.3,9.6-0.4c0.2,0,0.3,0,0.5,0
		c-0.1,0.2-0.1,0.4-0.2,0.6c-0.1,0.4-0.1,0.8-0.1,1.2c0,0.6,0,1.2,0,1.8c0,0.3,0.1,0.6,0.1,1c0.1,0.3,0.3,0.6,0.5,0.8
		c0.2,0.3,0.6,0.4,0.9,0.5C30.5,48,30.8,48,31,48s0.4,0,0.6,0c0.3,0,0.7,0,1,0c0.6,0,1.1-0.1,1.7-0.2c0.8-0.1,1.6-0.1,2.2-0.7
		c0.8-0.8,0.6-1.9,0.5-3c-0.1-0.9-0.3-1.7-0.5-2.6c0.3,0,0.5-0.1,0.7-0.3c0.2-0.1,0.4-0.3,0.5-0.4c0.2-0.2,0.3-0.5,0.5-0.8
		c0.2-0.5,0.2-1,0.2-1.5c0-0.7-0.1-1.4-0.1-2c-0.1-1.4-0.3-2.8-0.4-4.2c0-0.2,0-0.5-0.1-0.7c0-0.4-0.2-0.8-0.4-1.1
		c0.5-0.1,1-0.2,1.5-0.4c0.4-0.2,0.8-0.5,1.2-0.8s0.6-0.8,0.8-1.2c0.4-0.9,0.4-1.9,0.1-2.9C40.9,24.3,40.2,23.6,39.3,23.4z
		 M9.5,27.1L9.5,27.1L9.5,27.1L9.5,27.1z M9.5,26.9L9.5,26.9L9.5,26.9L9.5,26.9L9.5,26.9z M35.1,32L35.1,32L35.1,32L35.1,32z
		 M15.6,28.4c0.1-0.6,0.3-1.2,0.5-1.8c0.2-0.5,0.5-1,0.8-1.4c0.3-0.3,0.6-0.6,0.9-0.9c0.3-0.2,0.7-0.4,1-0.6c0.5-0.2,1-0.4,1.5-0.5
		c0.3-0.1,0.7-0.1,1-0.2c0.8-0.1,1.5-0.1,2.3-0.1s1.6,0.1,2.4,0.2c0.6,0.1,1.2,0.2,1.7,0.4c0.5,0.2,1.1,0.3,1.6,0.5
		c0.4,0.2,0.9,0.5,1.3,0.7c0.3,0.3,0.6,0.6,0.8,0.9c0.3,0.4,0.5,0.7,0.7,1.1c0.2,0.6,0.4,1.2,0.5,1.8c0.1,0.3,0.1,0.6,0.1,0.9
		c-0.9,0-1.9,0-2.9,0.1c-0.8,0-1.5,0.1-2.3,0.2c-0.2,0-0.3-0.1-0.5-0.1c-0.7-0.1-1.4,0-2.1,0c-0.8,0-1.7,0.1-2.5,0.1
		c-1.5,0-2.9,0.1-4.4,0.1c-0.9,0-1.8,0.1-2.7,0.1l0,0C15.5,29.3,15.5,28.8,15.6,28.4z M12.1,32.8C12,32.9,12,32.9,12.1,32.8
		C12,32.9,12,32.9,12.1,32.8L12.1,32.8z M11.9,40.4L11.9,40.4c0.1,0,0.1,0.1,0.2,0.1C12,40.5,11.9,40.4,11.9,40.4z M12.7,45.5
		L12.7,45.5C12.7,45.5,12.7,45.6,12.7,45.5C12.7,45.6,12.7,45.5,12.7,45.5z M12.7,45.4L12.7,45.4L12.7,45.4L12.7,45.4L12.7,45.4
		c0.1,0,0.1,0,0.1,0C12.7,45.4,12.7,45.4,12.7,45.4z M16.4,44.9L16.4,44.9L16.4,44.9L16.4,44.9z M16.4,44.9L16.4,44.9L16.4,44.9
		L16.4,44.9z M16.2,43.5c0,0.2,0.1,0.4,0.1,0.6l0,0c0,0.3,0.1,0.6,0,0.8c-0.6,0.2-1.2,0.3-1.8,0.4c-0.6,0.1-1.1,0.1-1.7,0.1
		c-0.1,0-0.2,0-0.3-0.1c-0.1-0.5-0.1-0.9-0.2-1.4c0-0.4-0.1-0.7-0.2-1.1c0.6,0,1.1-0.1,1.7-0.1c0.8-0.1,1.6-0.2,2.4-0.2l0,0
		C16.2,42.8,16.1,43.1,16.2,43.5z M27.4,39.8C25.7,39.9,24,40,22.3,40c-0.9,0-1.7,0.1-2.6,0.2c-0.9,0.1-1.8,0.2-2.7,0.3
		c-0.8,0.1-1.6,0.1-2.4,0.1c-0.7,0-1.5,0-2.2-0.1c-0.2,0-0.3-0.1-0.5-0.1v-0.1c-0.1-1-0.1-2-0.1-3c0-1.2,0-2.3,0.2-3.5
		c0.1-0.3,0.1-0.7,0.2-1c0.6-0.2,1.2-0.3,1.7-0.4c0.9-0.2,1.7-0.3,2.6-0.4c1.8-0.2,3.7-0.4,5.5-0.5c1-0.1,2-0.1,3-0.1
		c0.5,0,0.9,0,1.4,0c0.2,0,0.4,0,0.6,0c0.2,0.1,0.4,0.2,0.6,0.2c2.2-0.1,4.4-0.1,6.5,0.2c0.3,0.1,0.6,0.1,1,0.2
		c0.2,0.6,0.3,1.2,0.5,1.8c0.2,0.7,0.3,1.4,0.4,2.1c0,0.4,0.1,0.9,0.1,1.3c0,0.4,0,0.8-0.1,1.2c0,0.2-0.1,0.4-0.1,0.6
		c-0.7,0.2-1.5,0.3-2.2,0.4c-0.5,0.1-1,0.1-1.5,0.2c0.1,0,0.1,0,0.2,0C30.7,39.6,29.1,39.7,27.4,39.8z M31.5,45.4L31.5,45.4
		C31.5,45.4,31.6,45.4,31.5,45.4C31.6,45.4,31.5,45.4,31.5,45.4z M34.4,45.2C34.4,45.2,34.3,45.3,34.4,45.2
		C34.3,45.3,34.4,45.2,34.4,45.2L34.4,45.2z M33.2,45.2c-0.6,0.1-1.1,0.1-1.7,0.1c-0.1-0.5-0.2-0.9-0.2-1.4
		c-0.1-0.7-0.3-1.4-0.6-2.1c0.8,0,1.5,0,2.3-0.1c0.3,0,0.7,0,1,0l0,0c0.1,0.7,0.3,1.4,0.4,2.1c0,0.4,0,0.7,0,1.1
		C34,45.1,33.6,45.1,33.2,45.2z"/><path d="M16.5 34.4c-.6 0-1.3.1-1.9.2h.1c-.4 0-.8.1-1.2.2-.2 0-.3.1-.5.2-.1 0-.2.1-.3.2-.2.1-.4.4-.4.7s.2.6.4.7l0 0c.2.2.4.2.6.3.1 0 .4 0 .5.1.2 0 .3 0 .5 0 .8 0 1.6-.1 2.4-.2.2-.1.4-.2.5-.3.2-.2.3-.5.3-.8C17.7 35 17.2 34.4 16.5 34.4zM34.2 36c0-.3-.1-.7-.4-.9-.2-.2-.5-.4-.8-.4h-.1c-.3 0-.6.1-1 .1 0 0 0 0 .1 0-.5.1-.9.1-1.4.2-.3.1-.5.2-.8.3-.4.1-.8.3-.8.8 0 .4.4.8.8.8h.1C30 37 30.1 37 30.3 37c.3.1.6.1.9.1.6 0 1.1.1 1.7.1C33.6 37.3 34.2 36.6 34.2 36zM21.5 34.8c0-.1-.1-.2-.1-.2l0 0v-.1c0-.4-.4-.8-.8-.8s-.8.4-.8.8v.1c0 .1-.1.2-.1.3s-.1.3-.1.4c-.1.5-.1.9-.2 1.4 0 .6.6 1.2 1.2 1.2.3 0 .6-.1.8-.3.1-.1.2-.3.3-.5 0-.2 0-.4 0-.6-.1-.4-.1-.7-.2-1.1C21.5 35.1 21.5 34.9 21.5 34.8zM24.4 34.7C24.4 34.7 24.3 34.7 24.4 34.7c-.1-.5-.4-.8-.8-.8s-.8.4-.8.8l0 0c-.1.2-.2.4-.2.6-.1.4-.1.9-.1 1.3 0 .7.6 1.2 1.2 1.2.3 0 .6-.1.9-.4.3-.3.4-.7.3-1.2-.1-.4-.1-.8-.2-1.1C24.5 35.1 24.5 34.9 24.4 34.7zM27.6 34.9l-.1-.1c0-.1 0-.1 0-.2-.1-.3-.4-.6-.8-.6-.1 0-.1 0-.2 0-.2 0-.4.2-.5.4s-.1.4-.1.6l0 0c0 .2-.1.3-.1.5 0 .4 0 .8 0 1.2 0 .3.1.6.3.8.2.2.5.3.8.3s.6-.1.8-.3c.1-.1.2-.3.3-.5 0-.2 0-.4 0-.6-.1-.3-.1-.7-.2-1C27.7 35.2 27.7 35 27.6 34.9z"/></svg>