<svg xmlns="http://www.w3.org/2000/svg" enable-background="new 0 0 53 53" viewBox="0 0 53 53"><path fill="#231f20" d="M40.2080269,46.9608154c0.2678223,0.010498,0.6311035,0.046875,1.0661621-0.15625
		c0.4343262-0.2092285,0.6889648-0.6130371,0.8347168-0.9187012c0.7084885-1.5854034,1.2285194-2.7863235,2.3540039-5.604248
		c0.0595703-0.1611328,0.1320801-0.2993164,0.2087402-0.6032715c0.0615234-0.2697754,0.0517578-0.5585938-0.0109863-0.8237305
		c-0.2939453-1.0947266-1.3317871-1.5808105-2.1591797-1.5532227c-2.7260818,0.1703453-4.1744843,0.0351105-5.4956055,0.0180664
		c-0.0742188-1.864502-0.1452637-3.5512695-0.2128906-5.0437012c0.065918,0.0083008,0.1269531,0.0141602,0.2021484,0.0268555
		c0.5288086,0.074707,1.2243652,0.3730469,2.317627,0.5754395c0.5375977,0.0822754,1.3015137,0.0739746,1.9663086-0.3859863
		c0.661377-0.4589844,1.0126953-1.1811543,1.260498-1.8361835c0.421875-1.2207031,1.0744629-2.5517578,1.5544434-4.0644531
		c0.2414551-0.7580566,0.4558105-1.5100098,0.5356445-2.3356934c-0.0007324-0.4365234,0.0844727-0.8439941-0.2282715-1.4470215
		c-0.0478516-0.1535645-0.2263184-0.2414551-0.331543-0.3635254c-0.1101074-0.1230469-0.2751465-0.2133789-0.3830566-0.2509766
		c-0.2392578-0.0942383-0.4719238-0.1347656-0.6801758-0.1516113c-0.4243164-0.0300293-0.7458496,0.0097656-1.0581055,0.0244141
		c-1.1185684,0.0745144-0.6220551,0.0375576-2.5625,0.1938477c-1.4333496,0.1315918-2.4648438,0.2775879-2.9436035,0.421875
		c0.1811638-3.3030758,0.1692123-3.0264778,0.251709-4.7502441c0.4731445,0.1835938,1.4848633,0.4143066,2.9147949,0.6630859
		c0.2714844,0.0378418,0.6037598,0.074707,0.9919434-0.0222168c0.3903809-0.0959473,0.7546387-0.3566895,1.0009766-0.6586914
		c0.4941406-0.6132813,0.6691895-1.3093262,0.8886719-1.9169912c0.9030914-2.6402826,1.4343109-4.4107285,2.0151367-6.314209
		c0.0290527-0.0983887,0.0571289-0.1916504,0.0881348-0.3435059c0.0332031-0.1757813,0.0498047-0.3525391,0.0349121-0.5231934
		c-0.0268555-0.3395996-0.1865234-0.6530762-0.4450684-0.8520513C43.9289742,7.761107,43.590107,7.69348,43.2566109,7.6976304
		c-1.3644676,0.0333247-2.7421722,0.0809803-4.0993652,0.168457c-0.9912109,0.0637207-1.7939453,0.1391606-2.3598633,0.2226567
		c-0.0449219-0.8400884-0.1074219-1.7009282-0.2145996-2.6059575c-0.1245117-0.7553711-0.329834-1.5805664-0.8828125-2.3183594
		c-0.5463867-0.7626953-1.4909668-1.1567383-2.3327637-1.3166504c-1.7231464-0.2900391-3.3947773-0.09375-5.1118183-0.0419922
		c-7.3516121,0.3353953-3.4640694,0.1558695-8.1350098,0.373291c-0.4685059,0.0227051-1.0026855,0.0456543-1.546875,0.1889648
		c-0.5344238,0.1220703-1.1889648,0.4619141-1.564209,1.0458984c-0.3574219,0.5776367-0.4482422,1.1662598-0.5041504,1.6899414
		c-0.0708675,0.7458415-0.0608749,1.4509811-0.0664063,2.6259766c-0.6970215-0.2814941-3.387207-0.5996094-6.9150391,0.0869141
		C9.0034351,7.9185777,8.5527515,8.3634024,8.4526539,8.9100332C8.3960133,9.1783438,8.4282398,9.4713125,8.5349293,9.7301016
		l0.1672363,0.4013672c0.6555014,1.5412369,1.3102865,3.096674,2.3693848,5.3630371
		c0.137207,0.2890625,0.2509766,0.5456533,0.4077148,0.8518057c0.1586914,0.2973633,0.3747559,0.642334,0.7424316,0.887207
		c0.380127,0.2502441,0.7717285,0.2836914,1.0529785,0.2966309c0.2641602,0.0012207,0.5178223,0.0026855,0.7597656,0.0036621
		c1.027832-0.0056152,1.8352051-0.0400391,2.3708496-0.1003418c-0.0024414,1.4460449-0.0053711,2.8964844-0.0078125,4.3742676
		c-1.5562439-0.2184715-4.1828156-0.2919559-5.7390137-0.3210449c-0.4802914-0.0081577-0.5751514-0.006815-0.7067871,0.0175781
		c-0.5849609,0.0966797-1.0480957,0.6611328-1.0151367,1.277832c0.0109863,0.1523438,0.0371094,0.3027344,0.1069336,0.4523926
		c0.0615234,0.1425781,0.1665039,0.3288574,0.1855469,0.3720703l0.2333984,0.4553223
		c0.6941147,1.3358231,1.3844767,2.6588173,2.3781738,4.4265137c0.3093262,0.5437012,0.5678711,1.0144043,0.885498,1.53125
		c0.3889961,0.6027184,0.8312092,0.9381809,1.5629883,1.0678711c0.5415039,0.0844727,0.9421387,0.0566406,1.3137207,0.0639648
		c0.2966309-0.0009766,0.5510254-0.0083008,0.7790527-0.0195313c-0.001709,1.4824238-0.0031738,2.9714375-0.0048828,4.4267597
		c-0.0097656,0.4226074-0.0407715,0.8457031-0.0732422,1.269043c-0.5310116-0.0281677-0.1040573-0.0030518-4.2062988-0.1730957
		c-0.5427246-0.0354004-1.114502-0.0727539-1.7104492-0.1118164l-0.4506836-0.0356445l-0.3586426-0.0253906
		c-0.1540527-0.010498-0.2954102,0.0141602-0.4350586,0.0546875c-0.5605469,0.1672363-0.956543,0.7714844-0.8330078,1.3925781
		c0.2433109,1.1776581,0.1452332,0.7398911,0.404541,1.8220215c0.3813477,1.4853516,0.8718262,2.864502,1.402832,4.0817871
		c0.2668457,0.6118164,0.5849609,1.2419434,1.0625,1.7451172c0.4824219,0.5073242,1.0744629,0.8071289,1.6064453,0.9567871
		c1.078125,0.2839355,1.9133301,0.1657715,2.4694824,0.0859375c0.2446289-0.0432129,0.4291992-0.0900879,0.5695801-0.137207
		c0.1103516,0.6569824,0.2922363,1.3186035,0.6591797,1.9350586c0.5847168,1.0629883,1.6677246,1.7580566,2.6911621,2.1008301
		c1.0380859,0.3430176,2.0639648,0.4753418,3.0510254,0.557373c3.9082031,0.3015137,7.6337891,0.2775879,11.0866718,0.0976563
		c0.8649902-0.0639648,1.7426758-0.005127,2.7294922-0.4455566c0.4951172-0.2265625,0.9094238-0.7185059,1.0761719-1.1943359
		c0.1899414-0.4799805,0.2307129-0.932373,0.255127-1.3630371c0.0168457-0.5354004-0.0012207-1.0290527-0.0217285-1.5107422
		c0.5209961,0.0864258,1.2338867,0.1687012,2.1113281,0.2424316C39.7007027,46.9215088,39.9492378,46.9407959,40.2080269,46.9608154
		z M43.2097359,9.0379629c0.0102539,0.0039063,0.0180664,0.0085449,0.0222168,0.0161133s0.0024414,0.0168457-0.0007324,0.0229492
		l-0.005127,0.0070801l-0.0549316,0.1826172c-0.1052246,0.3291016-0.217041,0.6794434-0.3251953,1.0185547
		c-0.2043457-0.0808105-0.440918-0.1418457-0.7006836-0.1679688c-0.7929688-0.079834-1.4675293,0.1733398-1.5070801,0.5654297
		s0.5710449,0.7746582,1.3640137,0.8544922c0.154541,0.015625,0.302002,0.0151367,0.4436035,0.0068359
		c-0.0690918,0.2214355-0.1313477,0.4313965-0.1984863,0.6496582c-0.2006836-0.0859375-0.4274902-0.1569824-0.6743164-0.2001953
		c-0.8305664-0.1450195-1.5839844,0.048584-1.6821289,0.4304199c-0.0981445,0.3815918,0.5446777,0.8193359,1.4365234,0.9753418
		c0.1877441,0.0327148,0.3666992,0.046875,0.5368652,0.0500488c-0.1186523,0.3964844-0.2255859,0.769043-0.3361816,1.1496582
		c-0.2973633-0.0529785-0.6315918-0.0908203-0.9890137-0.1096191c-1.1181641-0.0529785-2.0744629,0.0766602-2.1547852,0.4660645
		c-0.0808105,0.3818359,0.8430176,0.8986816,2.083252,0.9592285c0.2426758,0.0124512,0.4702148,0.0019531,0.6867676-0.0187988
		c-0.1494141,0.5368643-0.2827148,0.9995108-0.4870605,1.2924795c-0.2290039,0.3347168-0.4724121,0.4116211-0.9697266,0.4018555
		c-1.4355469-0.0651855-2.4909668-0.065918-2.9882813,0.0102539c0.057373-1.2329102,0.1135254-2.6008291,0.1467285-4.1257315
		c0.0200195-1.4790039,0.0361328-3.0878906-0.0349121-4.815918C38.5078888,8.9016628,41.5512581,8.995944,43.2097359,9.0379629z
		 M14.0974293,16.5267315c-0.4626465-0.0666504-1.0637207-0.0969238-1.1945801-0.2609863
		c-0.1550293-0.1049805-0.3127441-0.4980459-0.4921875-0.956542c0.4047852,0.1315918,0.932373,0.2236328,1.5241699,0.2336426
		c1.3066406,0.0244141,2.3483887-0.3496094,2.3273926-0.7414551c-0.0205078-0.3952637-1.0510254-0.6616211-2.302002-0.6853027
		c-0.8010254-0.0134277-1.5112305,0.0769043-1.9306641,0.2463379c-0.1992188-0.4924316-0.4038086-0.9929199-0.6225586-1.5151367
		c0.328125,0.0844727,0.7250977,0.1381836,1.1538086,0.1472168c1.1386719,0.0241699,2.0683594-0.2756348,2.0766602-0.6696777
		s-0.907959-0.7329102-2.0463867-0.7570801c-0.6601563-0.013916-1.2434082,0.083252-1.6242676,0.2421875
		c-0.2032003-0.4752846-0.1199312-0.2933388-0.3833008-0.8925781c0.3823242,0.0532227,0.8283691,0.0700684,1.3110352,0.0273438
		c1.3937988-0.1203613,2.4414063-0.6630859,2.361084-1.0456543c-0.0803223-0.388916-1.1843262-0.4875488-2.4855957-0.3759766
		c-0.6481934,0.0578613-1.2385254,0.1589355-1.6696777,0.2944336c-0.0354004-0.0800781-0.0725098-0.1650391-0.1074219-0.2443848
		C9.9309254,9.435668,9.8698902,9.3001699,9.8098316,9.166625C9.8059254,9.1524649,9.8100758,9.142211,9.8230152,9.1295156
		c3.3039551-0.8137207,5.923584-0.9121094,6.614502-1.1359868c-0.0095367,2.1571345-0.0270214,6.9339404-0.03125,8.9208984
		C15.8818531,16.7899151,15.0954762,16.657835,14.0974293,16.5267315z M15.6821461,30.357542
		c-0.3571777-0.0793457-0.7978516-0.1362305-1.1611328-0.2521973c-0.3898926-0.1337891-0.5629883-0.2712402-0.7766113-0.6887207
		c-1.0565176-2.1999645-0.663703-1.3828907-0.7932129-1.6474609c0.1325684,0.0324707,0.2700195,0.0603027,0.4162598,0.0771484
		c0.8635254,0.098877,1.5998535-0.1384277,1.6447754-0.5297852c0.0449219-0.3916016-0.6186523-0.7890625-1.4821777-0.8881836
		c-0.4648438-0.0532227-0.8884277-0.0065918-1.1916504,0.1066895c-0.1125488-0.2246094-0.2248535-0.4475098-0.3417969-0.6772461
		c0.1948242,0.0234375,0.4077148,0.0292969,0.6308594,0.012207c0.8632813-0.0661621,1.5385742-0.4382324,1.5085449-0.8310547
		c-0.0300293-0.3930664-0.7541504-0.657959-1.6174316-0.5917969c-0.4353027,0.0334473-0.8220215,0.1447754-1.095459,0.2971191
		c-0.0732422-0.1408691-0.1403809-0.2746582-0.2148438-0.4169922c-0.1647949-0.3120117-0.3276367-0.6203613-0.4882813-0.9243164
		l-0.2414551-0.4509277c-0.0571289-0.1071777-0.0380859-0.0686035-0.043457-0.0769043l-0.0053711-0.0039063
		c-0.0070801-0.0063477-0.0078125-0.0236816,0.0048828-0.0310059l0.010498-0.0053711
		c0.1139812-0.0071735,3.9366217-0.1068573,5.9511719-0.421875c-0.0118389,6.5133972-0.012104,6.4121647-0.0136719,8.1027832
		C16.1748219,30.4642315,15.9472828,30.4119854,15.6821461,30.357542z M15.2453785,46.0653076
		c-0.5324707-0.0837402-1.3278809-0.1479492-2.1259766-0.4831543c-0.3942871-0.1716309-0.7641602-0.4240723-1.0517578-0.7861328
		c-0.2910156-0.3669434-0.5151367-0.8686523-0.7324219-1.4580078c-0.0324707-0.0876465-0.0632324-0.1884766-0.095459-0.2775879
		c0.1984863,0.0561523,0.4177246,0.0966797,0.6552734,0.1105957c1.0166016,0.0620117,1.7958984-0.3659668,1.7407227-0.7524414
		c-0.0532227-0.394043-0.7937012-0.6171875-1.6560059-0.6721191c-0.4399414-0.0244141-0.8522949-0.0009766-1.1652832,0.0783691
		c-0.1120605-0.3415527-0.2165527-0.6938477-0.3227539-1.0512695c0.2453613,0.0759277,0.5214844,0.1340332,0.822998,0.1601563
		c1.0786133,0.0957031,1.9536133-0.2338867,1.947998-0.6257324c-0.0046387-0.3962402-0.8232422-0.706543-1.822998-0.7958984
		c-0.4914551-0.0424805-0.9482422-0.0239258-1.2954102,0.0512695c-0.0151367-0.0576172-0.0332031-0.1098633-0.0480957-0.1677246
		c-0.0673828-0.2753906-0.1342773-0.5480957-0.2004395-0.8178711c-0.0522461-0.2302246-0.1037598-0.4577637-0.154541-0.682373
		c-0.005127-0.0029297-0.0085449-0.0146484-0.0009766-0.0219727l0.0065918-0.0041504l0.0041504-0.001709
		c0.1000271-0.0002098,3.5190144,0.2018738,6.494873-0.3481445c-0.2503824,2.5719185-0.7249079,5.083065-0.5737305,7.6335449
		c0.0227051,0.3251953,0.0563965,0.6623535,0.1010742,1.0021973C15.6345387,46.1243896,15.4646168,46.0946045,15.2453785,46.0653076
		z M36.2744331,48.1072998c-0.0412598,0.7600098-0.232666,1.387207-0.7370605,1.5957031
		c-0.545166,0.2536621-1.425293,0.2600098-2.2663574,0.2888184c-3.4389668,0.1281738-7.1018085,0.1052246-10.9284687-0.2248535
		c-1.8466797-0.1706543-3.8684082-0.529541-4.6796875-2.0324707c-0.4348145-0.7236328-0.5510254-1.6652832-0.6108398-2.659668
		c-0.1657104-3.0851326,0.6539917-6.1710968,0.7441406-9.482666c0.0263443-11.2339764,0.0136337-20.1794128-0.012207-28.9372578
		c0.0014648-0.9648438,0.0048828-2.0039063,0.3293457-2.5266113c0.2702637-0.4797363,1.1572266-0.635498,2.0742188-0.6645508
		c4.6393776-0.2688797,0.5891685-0.0324543,8.1296387-0.4760742c1.7211914-0.0849609,3.3991699-0.2827148,4.8532734-0.0563965
		c0.7114258,0.1328125,1.3259277,0.3850098,1.6982422,0.8850098c0.3881836,0.4882813,0.5979004,1.1599121,0.7199707,1.8395996
		c0.3962402,2.8139653,0.4296875,5.5073247,0.4694824,7.8149419c0.0061607,5.8755846-0.0063629,8.0432653,0.0666504,9.756835
		c0.0410156,0.8652344,0.0874023,1.3188477,0.1374512,1.3188477c0.084938,0,0.157711-1.456461,0.1625977-1.5412598
		c0.4746094,0.1206055,1.526123,0.2114258,2.9890137,0.2644043c1.9499474,0.0490551,1.4547768,0.03969,2.5693359,0.0517578
		c0.3186035,0.0043945,0.6481934-0.0056152,0.8881836,0.0292969c0.1225586,0.0166016,0.223877,0.0454102,0.3005371,0.0810547
		c0.0734863,0.0415039,0.0319824,0.0158691,0.0449219,0.0500488c0.0332031,0.0224609,0.0493164,0.3684082,0.020752,0.6433105
		c-0.0285645,0.2355957-0.0878906,0.4912109-0.1469727,0.7463379c-0.1340332-0.0356445-0.2731934-0.0671387-0.4204102-0.0891113
		c-0.8261719-0.1206055-1.5617676,0.0246582-1.6584473,0.4084473c-0.0961914,0.3803711,0.5454102,0.8706055,1.4499512,1.003418
		c0.0861816,0.0126953,0.1691895,0.0185547,0.2519531,0.0239258c-0.1474609,0.4609375-0.3103027,0.9104004-0.4768066,1.3549805
		c-0.296875-0.1252441-0.6713867-0.2224121-1.0895996-0.2658691c-1.0009766-0.104248-1.845459,0.1291504-1.8862305,0.5209961
		c-0.0407715,0.3920898,0.7375488,0.7941895,1.7385254,0.8981934c0.2873535,0.0297852,0.5583496,0.0292969,0.8046875,0.0078125
		c-0.1291504,0.3476563-0.248291,0.6938477-0.3598633,1.0380859c-0.3720703-0.2216797-1.0332031-0.4008789-1.7912598-0.5026855
		c-1.1689453-0.1523438-2.1750488-0.0712891-2.2702637,0.3137207c-0.0949707,0.3796387,0.8269043,0.9362793,2.0830078,1.1010742
		c0.6726074,0.0898438,1.2756348,0.043457,1.6975098-0.0766602c-0.1594238,0.4101563-0.3503418,0.7382813-0.5883789,0.9331055
		c-0.3044434,0.2587891-0.722168,0.3393555-1.173584,0.3320313c-0.9060059-0.0439453-1.7907715-0.2209473-2.3996582-0.1257324
		c-0.0891113,0.012207-0.1557617,0.032959-0.230957,0.0510254c-0.0753632-1.6316643-0.2038269-4.3041267-0.3320313-5.9348145
		c-0.138031-1.7556534-0.2369576-1.7563229-0.2875977,0.0007324c-0.0779915,2.705946-0.0227547,8.8528461,0.005127,11.5646992
		c-0.0014648,0.0031738-0.0083008,0.0046387-0.0090332,0.0080566c-0.0012207,0.0056152,0.0083008,0.0136719,0.0092773,0.0197754
		c0.0346413,3.3917809,0.0764236,6.2035065,0.1071777,8.3554688C36.2641792,46.583374,36.3125191,47.37854,36.2744331,48.1072998z
		 M37.0288277,37.9051514c0.5075684,0.1660156,1.2143555,0.3408203,2.1030273,0.4804688
		c0.9396973,0.1494141,2.1430664,0.2392578,3.3579102,0.2307129c0.4018555,0.0029297,0.7683105,0.2912598,0.8100586,0.5588379
		c0.0671387,0.0559082-0.0644531,0.3786621-0.229248,0.7644043c-0.2646484-0.2412109-0.7792969-0.4370117-1.4003906-0.4628906
		c-0.9384766-0.0407715-1.6806641,0.3220215-1.6572266,0.7133789c0.0229492,0.3952637,0.7380371,0.6743164,1.5964355,0.7124023
		c0.4260254,0.017334,0.8212891-0.0275879,1.1188965-0.125c-0.1049805,0.2607422-0.2004395,0.5078125-0.302002,0.763916
		c-0.2758789-0.123291-0.6281738-0.2092285-1.0297852-0.2148438c-0.9838867-0.0161133-1.7131348,0.4453125-1.6386719,0.8286133
		c0.072998,0.390625,0.7924805,0.5825195,1.6169434,0.5983887c0.2033691,0.0021973,0.4001465-0.0065918,0.583252-0.0266113
		c-0.0952148,0.2456055-0.1784668,0.4716797-0.2695313,0.7106934c-0.2434082-0.0874023-0.5234375-0.1586914-0.8325195-0.1994629
		c-0.9914551-0.1308594-1.817627,0.0830078-1.845459,0.4760742c-0.0275879,0.3930664,0.7148438,0.8139648,1.6586914,0.9387207
		c0.1901855,0.0251465,0.3728027,0.032959,0.5480957,0.0319824c-0.0854492,0.2324219-0.1706543,0.4633789-0.2524414,0.6855469
		c-0.0908203,0.2307129-0.1706543,0.3383789-0.2402344,0.3862305c-0.1274414,0.1262207-0.8034668,0.1035156-1.2453613,0.1374512
		c-0.8959961,0.0471191-1.623291,0.1079102-2.1489258,0.1794434C37.3011017,45.1944046,37.1470871,40.9242363,37.0288277,37.9051514
		z"/><path fill="#231f20" d="M27.7190113 37.0570068c-.9345703-.2399902-1.9641113-.2128906-2.9711914.1606445-1.0036621.3774414-1.8891602 1.185791-2.385498 2.1923828-.9907227 2.0424805-.4716797 4.40625.7841797 5.8122559 1.0844173 1.2879639 2.7705345 1.9614334 4.484375 1.6594238 1.390625-.2443848 2.3012695-.9887695 2.7687988-1.5634766.472168-.5913086.5605469-1.0095215.4880371-1.0480957-.0961914-.0585938-.3476563.2473145-.875.6496582-.2297363.1730957-.534668.3613281-.8886719.5285645.5107422-.4973145.9714355-1.152832 1.2502441-1.9589844.3071289-.9006348.3449707-1.7770996.2524414-2.5297852.4042969.857666.4855957 1.6689453.4033203 2.2353516-.0419922.3254395-.0952148.5822754-.145752.7578125-.0814514.3934135.0165691.4159775.2570801.1286621.1396484-.1459961.2890625-.394043.4274902-.7512207.2885742-.7004395.3679199-1.9089355-.2104492-3.1845703C30.7771168 38.90979 29.5827808 37.567749 27.7190113 37.0570068zM29.0254078 43.0235596c-.3896484 1.1228027-1.1413574 1.9768066-1.7753906 2.4711914-.1811523.1452637-.347168.2619629-.4997559.3654785-.923584-.1132813-1.8991699-.5708008-2.5932617-1.479248-.9023438-1.0979004-1.2248535-2.8757324-.5158691-4.3378906.359375-.7138672.9428711-1.2504883 1.6245117-1.5266113.6772461-.2717285 1.4702148-.3288574 2.1462402-.1809082.7084961.1555176 1.3337402.4909668 1.8537598.9082031.017334.1896973.0378418.3986816.0581055.6374512C29.3984547 40.727417 29.4157887 41.8865967 29.0254078 43.0235596zM27.7190113 23.723753c-.9345703-.2402344-1.9641113-.2128906-2.9711914.1606445-1.0036621.3774414-1.8891602 1.185791-2.385498 2.1921387-.9907227 2.0427246-.4716797 4.4064941.7841797 5.8125 1.0799599 1.282671 2.7635231 1.9620609 4.484375 1.6594257 1.390625-.2446289 2.3012695-.9887695 2.7687988-1.5634785.472168-.5915527.5605469-1.0095215.4880371-1.0480957-.0961914-.0588379-.3476563.2473145-.875.6496582-.5224609.3937988-1.3793945.8845234-2.5085449.9606953-1.1098633.0949707-2.4594727-.3376465-3.347168-1.4995136-.9023438-1.0981445-1.2248535-2.8757324-.5158691-4.3378906.359375-.7138672.9428711-1.2504883 1.6245117-1.5266113.6772461-.2717285 1.4702148-.3288574 2.1462402-.1809082 1.3989258.3068848 2.4772949 1.3132324 3.0495605 2.2722168.5710449.9865723.6621094 1.9428711.5686035 2.5871582-.0419922.3254395-.0952148.5822754-.145752.7575684-.078886.381546.0085258.4258308.2570801.1289063.1396484-.1459961.2890625-.394043.4274902-.7512207.2885742-.7006836.3679199-1.9089355-.2104492-3.1848145C30.7771168 25.576292 29.5827808 24.234251 27.7190113 23.723753zM27.7190113 10.390502c-.9345703-.2402344-1.9641113-.2131348-2.9711914.1606445-1.0036621.3771973-1.8891602 1.1855469-2.385498 2.1921387-.9907227 2.0427246-.4716797 4.4064932.7841797 5.812499 1.0783882 1.2803688 2.7604675 1.9625969 4.484375 1.6594238 1.390625-.2446289 2.3012695-.9890137 2.7687988-1.5637207.472168-.5913086.5605469-1.0095215.4880371-1.0480957-.0961914-.0585938-.3476563.2473145-.875.6496582-.1921387.1450195-.4440918.298584-.7236328.4440918.4030762-.4638672.7675781-1.0439453 1.0070801-1.7316895.4018555-1.1574697.3388672-2.2944326.1005859-3.1223135.020752.0327148.045166.0654297.0646973.0979004.5710449.9868164.6621094 1.9431152.5686035 2.5874014-.0419922.3251953-.0952148.5822754-.145752.7575684-.0767994.3709469.002018.4336052.2570801.1289063.1396484-.1462402.2890625-.3942871.4274902-.7514648.2885742-.7004385.3679199-1.9089346-.2104492-3.1845694C30.7771168 12.243041 29.5827808 10.901 27.7190113 10.390502zM28.9482594 16.4964581c-.4333496 1.2734375-1.2412109 2.1477051-1.7868652 2.7260742-1.0354004-.0119629-2.2060547-.4633789-3.0043945-1.5083008-.9023438-1.0979004-1.2248535-2.8754873-.5158691-4.3376455.359375-.7138672.9428711-1.2504883 1.6245117-1.5268555.6772461-.2717285 1.4702148-.3286133 2.1462402-.1806641.6828613.1496582 1.2878418.4677734 1.7963867.8640137C29.1601734 13.1256094 29.5749683 14.7335196 28.9482594 16.4964581z"/></svg>