<svg xmlns="http://www.w3.org/2000/svg" enable-background="new 0 0 70 70" viewBox="0 0 70 70"><path d="M53.9726944,13.3306017c-0.3261719-0.2548828-0.7973633-0.1982422-1.0532227,0.1269531
		s-0.1992188,0.796875,0.1264648,1.0527344c10.3010254,8.0875864,13.3394165,21.4216309,9.0913696,32.6519165
		c-9.5784302,20.4572182-39.3370361,22.7977943-51.7792358,3.7028809c-1.6324463-2.9291382-2.7662969-6.1775513-3.27356-9.6380005
		C3.6821067,17.1946163,29.215126,0.6556139,49.4287491,12.1108751c0.3603516,0.2050781,0.8183594,0.078125,1.0219727-0.2822266
		c0.2045898-0.3603516,0.0776367-0.8183594-0.2827148-1.0224609c-4.480957-2.5400391-9.5878906-3.8828125-14.7685547-3.8828125
		c-21.2161865,0-29.0649414,20.3619385-29.2736206,21.8428955c-5.081604,13.808836,1.9003301,30.5124493,17.2260132,36.5205078
		c5.7286377,2.2457886,11.7156982,2.6157227,17.2558594,1.4135742
		c14.3011475-2.5176392,24.9084473-14.9426918,24.9084473-29.6597939
		C65.5161514,27.7329464,61.3086319,19.0903683,53.9726944,13.3306017z"/><path d="M10.7007227,37.0415382c0,16.1043701,15.267272,27.9667397,30.9016113,23.9074097
		c0.0186157-0.0065918,0.0387573-0.0081177,0.0567017-0.0161133c10.7700806-2.8242188,18.4376831-12.6351318,18.4376831-23.8912964
		c0-13.6191387-11.0795898-24.6982422-24.6982422-24.6982422C21.7135391,12.343297,10.7007227,23.4894161,10.7007227,37.0415382z
		 M12.6219263,41.426609c0.6633301-0.1218872,1.1233521-0.4160767,1.6676636-0.5442505
		c2.5684195-0.5943604,4.3098745,0.473877,6.2041006,2.2421875c5.0371094,4.7051392,7.9914551,10.539856,8.2064819,16.1243896
		C20.5312881,56.7803688,14.2542505,49.9208717,12.6219263,41.426609z M42.1494522,59.2339211
		c0.4643555-8.8062744,7.0489502-15.944519,15.8682251-17.0613403
		C56.1738663,50.3028297,50.0524063,56.8252296,42.1494522,59.2339211z M58.3182144,40.6293678
		c-9.9204102,0.9993286-17.4122314,9.1068726-17.6863403,19.0068359c-3.4536133,0.7996826-6.9647217,0.8036499-10.4216309,0.010437
		c-0.0849609-6.1176758-3.2321167-12.5170288-8.6931152-17.6177979c-0.8886719-0.8300781-1.878418-1.671875-3.0864258-2.2060547
		c-1.5819702-0.7111816-3.5214834-0.8302002-5.4111319-0.0888672c-0.1814575,0.0710449-0.4447632,0.173584-0.630249,0.2143555
		c-0.2982178-2.3734741-0.2585449-4.7823486,0.244751-7.3597412c0.0095215-0.0097046,0.020752-0.0271606,0.0300293-0.0352783
		c0.1137695-0.0976563,0.4775391-0.0625,0.7695313-0.0351563c1.3370972,0.1318359,2.4865112-0.2390747,3.7382803-0.7421856
		c9.9824219-4.0908203,21.1762695-4.6386719,31.5161133-1.5429688c3.0239258,0.9069214,6.1397705,2.1480083,9.4490356,2.2089825
		C58.6711807,35.0867043,58.7508926,37.8552589,58.3182144,40.6293678z M57.7765274,30.9394894
		c-2.8881226-0.1392212-5.7893066-1.2825317-8.6573486-2.144043c-10.6694336-3.1943359-22.2177734-2.6279297-32.5112305,1.5898438
		c-2.2802725,0.9176636-2.6911612,0.6148071-3.6031485,0.6107178c2.6669312-9.8688354,11.6933584-17.15271,22.3936768-17.15271
		C46.0782242,13.843297,55.0902481,21.0995235,57.7765274,30.9394894z"/><path d="M28.7285538 35.3706398c-.9429321 2.7075806-.9837036 6.1495972.3422852 8.7373047 1.6160889 3.1483765 5.1512451 3.9793091 8.6679688 3.2890625 2.7744141-.546875 4.5288086-2.6074219 5.2143555-6.1259766.6605225-3.3909912-.3544922-6.5914307-1.2915039-7.6474609C38.8768082 30.482336 30.2195206 31.0654659 28.7285538 35.3706398zM41.4805069 40.9839211c-.5654297 2.9023438-1.8842773 4.5185547-4.03125 4.9404297-1.574707.3105469-5.4101563.6835938-7.043457-2.5009766-1.1420898-2.2283936-1.0700684-5.2131348-.2602539-7.5615234 1.0253906-2.9579468 7.7399292-3.6136475 10.1879883-1.4472656 0 0 .0004883 0 .0004883.0009766.3515625.3114014.5100708.6157837.7045898 1.1308594C41.6870499 37.2593117 41.8398819 39.1391945 41.4805069 40.9839211zM58.708046 12.7075548l3.9423828-.7978516c.4057617-.0830078.6679688-.4785156.5854492-.8847656s-.4765625-.6640625-.8842773-.5859375l-3.9404297.7978516c-.40625.0820313-.6689453.4775391-.5869141.8837891C57.9054947 12.5212145 58.2934952 12.7887926 58.708046 12.7075548zM55.1650772 9.0444689c.2226563 0 .4428711-.0986328.5908203-.2871094L57.88871 6.0376329c.2553711-.3261719.1982422-.796875-.1274414-1.0527344-.3261719-.2578125-.796875-.1992188-1.0532227.1269531l-2.1328125 2.7197266C54.1866226 8.3279161 54.5490494 9.0444689 55.1650772 9.0444689zM51.5122452 6.9692736c.0092773 0 .019043 0 .0288086-.0009766.4135742-.0146484.7368164-.3632813.7211914-.7773438l-.1069336-2.8427734c-.039978-1.0278931-1.5355835-.9122925-1.4990234.0566406l.1069336 2.8427734C50.7783585 6.6518908 51.110878 6.9692736 51.5122452 6.9692736z"/></svg>